%TF.GenerationSoftware,KiCad,Pcbnew,5.1.8-db9833491~87~ubuntu20.04.1*%
%TF.CreationDate,2020-11-15T18:33:08-08:00*%
%TF.ProjectId,inflow-controller-v0,696e666c-6f77-42d6-936f-6e74726f6c6c,rev?*%
%TF.SameCoordinates,Original*%
%TF.FileFunction,Legend,Bot*%
%TF.FilePolarity,Positive*%
%FSLAX46Y46*%
G04 Gerber Fmt 4.6, Leading zero omitted, Abs format (unit mm)*
G04 Created by KiCad (PCBNEW 5.1.8-db9833491~87~ubuntu20.04.1) date 2020-11-15 18:33:08*
%MOMM*%
%LPD*%
G01*
G04 APERTURE LIST*
%ADD10C,0.120000*%
%ADD11C,0.150000*%
G04 APERTURE END LIST*
D10*
%TO.C,J303*%
X97455000Y-135610000D02*
X97455000Y-134807530D01*
X97455000Y-134192470D02*
X97455000Y-133390000D01*
X103740000Y-135610000D02*
X97455000Y-135610000D01*
X103740000Y-133390000D02*
X97455000Y-133390000D01*
X103740000Y-135610000D02*
X103740000Y-135063471D01*
X103740000Y-133936529D02*
X103740000Y-133390000D01*
X104500000Y-135610000D02*
X105260000Y-135610000D01*
X105260000Y-135610000D02*
X105260000Y-134500000D01*
%TO.C,J202*%
X97390000Y-110010000D02*
X98500000Y-110010000D01*
X97390000Y-109250000D02*
X97390000Y-110010000D01*
X99063471Y-108490000D02*
X99610000Y-108490000D01*
X97390000Y-108490000D02*
X97936529Y-108490000D01*
X99610000Y-108490000D02*
X99610000Y-107285000D01*
X97390000Y-108490000D02*
X97390000Y-107285000D01*
X98807530Y-107285000D02*
X99610000Y-107285000D01*
X97390000Y-107285000D02*
X98192470Y-107285000D01*
%TO.C,J101*%
X97390000Y-95285000D02*
X98192470Y-95285000D01*
X98807530Y-95285000D02*
X99610000Y-95285000D01*
X97390000Y-96490000D02*
X97390000Y-95285000D01*
X99610000Y-96490000D02*
X99610000Y-95285000D01*
X97390000Y-96490000D02*
X97936529Y-96490000D01*
X99063471Y-96490000D02*
X99610000Y-96490000D01*
X97390000Y-97250000D02*
X97390000Y-98010000D01*
X97390000Y-98010000D02*
X98500000Y-98010000D01*
%TO.C,J303*%
D11*
X100285714Y-131952380D02*
X100285714Y-132666666D01*
X100333333Y-132809523D01*
X100428571Y-132904761D01*
X100571428Y-132952380D01*
X100666666Y-132952380D01*
X99904761Y-131952380D02*
X99285714Y-131952380D01*
X99619047Y-132333333D01*
X99476190Y-132333333D01*
X99380952Y-132380952D01*
X99333333Y-132428571D01*
X99285714Y-132523809D01*
X99285714Y-132761904D01*
X99333333Y-132857142D01*
X99380952Y-132904761D01*
X99476190Y-132952380D01*
X99761904Y-132952380D01*
X99857142Y-132904761D01*
X99904761Y-132857142D01*
X98666666Y-131952380D02*
X98571428Y-131952380D01*
X98476190Y-132000000D01*
X98428571Y-132047619D01*
X98380952Y-132142857D01*
X98333333Y-132333333D01*
X98333333Y-132571428D01*
X98380952Y-132761904D01*
X98428571Y-132857142D01*
X98476190Y-132904761D01*
X98571428Y-132952380D01*
X98666666Y-132952380D01*
X98761904Y-132904761D01*
X98809523Y-132857142D01*
X98857142Y-132761904D01*
X98904761Y-132571428D01*
X98904761Y-132333333D01*
X98857142Y-132142857D01*
X98809523Y-132047619D01*
X98761904Y-132000000D01*
X98666666Y-131952380D01*
X98000000Y-131952380D02*
X97380952Y-131952380D01*
X97714285Y-132333333D01*
X97571428Y-132333333D01*
X97476190Y-132380952D01*
X97428571Y-132428571D01*
X97380952Y-132523809D01*
X97380952Y-132761904D01*
X97428571Y-132857142D01*
X97476190Y-132904761D01*
X97571428Y-132952380D01*
X97857142Y-132952380D01*
X97952380Y-132904761D01*
X98000000Y-132857142D01*
%TO.C,J202*%
X99785714Y-110397380D02*
X99785714Y-111111666D01*
X99833333Y-111254523D01*
X99928571Y-111349761D01*
X100071428Y-111397380D01*
X100166666Y-111397380D01*
X99357142Y-110492619D02*
X99309523Y-110445000D01*
X99214285Y-110397380D01*
X98976190Y-110397380D01*
X98880952Y-110445000D01*
X98833333Y-110492619D01*
X98785714Y-110587857D01*
X98785714Y-110683095D01*
X98833333Y-110825952D01*
X99404761Y-111397380D01*
X98785714Y-111397380D01*
X98166666Y-110397380D02*
X98071428Y-110397380D01*
X97976190Y-110445000D01*
X97928571Y-110492619D01*
X97880952Y-110587857D01*
X97833333Y-110778333D01*
X97833333Y-111016428D01*
X97880952Y-111206904D01*
X97928571Y-111302142D01*
X97976190Y-111349761D01*
X98071428Y-111397380D01*
X98166666Y-111397380D01*
X98261904Y-111349761D01*
X98309523Y-111302142D01*
X98357142Y-111206904D01*
X98404761Y-111016428D01*
X98404761Y-110778333D01*
X98357142Y-110587857D01*
X98309523Y-110492619D01*
X98261904Y-110445000D01*
X98166666Y-110397380D01*
X97452380Y-110492619D02*
X97404761Y-110445000D01*
X97309523Y-110397380D01*
X97071428Y-110397380D01*
X96976190Y-110445000D01*
X96928571Y-110492619D01*
X96880952Y-110587857D01*
X96880952Y-110683095D01*
X96928571Y-110825952D01*
X97500000Y-111397380D01*
X96880952Y-111397380D01*
%TO.C,J101*%
X99785714Y-98397380D02*
X99785714Y-99111666D01*
X99833333Y-99254523D01*
X99928571Y-99349761D01*
X100071428Y-99397380D01*
X100166666Y-99397380D01*
X98785714Y-99397380D02*
X99357142Y-99397380D01*
X99071428Y-99397380D02*
X99071428Y-98397380D01*
X99166666Y-98540238D01*
X99261904Y-98635476D01*
X99357142Y-98683095D01*
X98166666Y-98397380D02*
X98071428Y-98397380D01*
X97976190Y-98445000D01*
X97928571Y-98492619D01*
X97880952Y-98587857D01*
X97833333Y-98778333D01*
X97833333Y-99016428D01*
X97880952Y-99206904D01*
X97928571Y-99302142D01*
X97976190Y-99349761D01*
X98071428Y-99397380D01*
X98166666Y-99397380D01*
X98261904Y-99349761D01*
X98309523Y-99302142D01*
X98357142Y-99206904D01*
X98404761Y-99016428D01*
X98404761Y-98778333D01*
X98357142Y-98587857D01*
X98309523Y-98492619D01*
X98261904Y-98445000D01*
X98166666Y-98397380D01*
X96880952Y-99397380D02*
X97452380Y-99397380D01*
X97166666Y-99397380D02*
X97166666Y-98397380D01*
X97261904Y-98540238D01*
X97357142Y-98635476D01*
X97452380Y-98683095D01*
%TD*%
M02*
