M48
; DRILL file {KiCad 5.1.8-db9833491~87~ubuntu20.04.1} date Sun Nov 15 18:33:01 2020
; FORMAT={-:-/ absolute / inch / decimal}
; #@! TF.CreationDate,2020-11-15T18:33:01-08:00
; #@! TF.GenerationSoftware,Kicad,Pcbnew,5.1.8-db9833491~87~ubuntu20.04.1
FMAT,2
INCH
T1C0.0157
T2C0.0256
T3C0.0350
T4C0.0354
T5C0.0394
T6C0.0550
%
G90
G05
T1
X4.4882Y-4.0551
T2
X3.878Y-3.7787
X3.878Y-3.8287
X4.7264Y-4.3465
X4.7764Y-4.3465
X4.5264Y-4.3465
X4.5764Y-4.3465
X3.878Y-4.2512
X3.878Y-4.3012
X3.8642Y-5.2953
X3.9142Y-5.2953
X3.9642Y-5.2953
X4.0142Y-5.2953
X4.0642Y-5.2953
X4.1142Y-5.2953
X4.5264Y-4.1465
X4.5764Y-4.1465
X4.6264Y-4.1465
X4.6764Y-4.1465
X4.7264Y-4.1465
X4.7764Y-4.1465
T3
X4.2323Y-5.2559
X4.3307Y-5.2559
X4.4291Y-5.2559
X4.6654Y-4.8228
X4.6654Y-4.9213
X4.6654Y-5.0197
T4
X3.9272Y-4.7933
X3.9272Y-5.0492
X4.1043Y-4.7933
X4.1043Y-5.0492
T5
X4.4764Y-3.8465
X4.4764Y-3.9465
X4.5764Y-3.8465
X4.5764Y-3.9465
X4.6764Y-3.8465
X4.6764Y-3.9465
X4.7764Y-3.8465
X4.7764Y-3.9465
T6
X4.1339Y-4.6752
X4.1339Y-5.1673
X4.5276Y-4.6752
X4.5276Y-5.1673
T0
M30
