%TF.GenerationSoftware,KiCad,Pcbnew,5.1.8-db9833491~87~ubuntu20.04.1*%
%TF.CreationDate,2020-11-15T18:33:08-08:00*%
%TF.ProjectId,inflow-controller-v0,696e666c-6f77-42d6-936f-6e74726f6c6c,rev?*%
%TF.SameCoordinates,Original*%
%TF.FileFunction,Copper,L2,Bot*%
%TF.FilePolarity,Positive*%
%FSLAX46Y46*%
G04 Gerber Fmt 4.6, Leading zero omitted, Abs format (unit mm)*
G04 Created by KiCad (PCBNEW 5.1.8-db9833491~87~ubuntu20.04.1) date 2020-11-15 18:33:08*
%MOMM*%
%LPD*%
G01*
G04 APERTURE LIST*
%TA.AperFunction,ComponentPad*%
%ADD10R,1.778000X1.778000*%
%TD*%
%TA.AperFunction,ComponentPad*%
%ADD11C,1.778000*%
%TD*%
%TA.AperFunction,ComponentPad*%
%ADD12R,2.286000X2.286000*%
%TD*%
%TA.AperFunction,ComponentPad*%
%ADD13O,1.000000X1.000000*%
%TD*%
%TA.AperFunction,ComponentPad*%
%ADD14R,1.000000X1.000000*%
%TD*%
%TA.AperFunction,ComponentPad*%
%ADD15O,1.700000X1.700000*%
%TD*%
%TA.AperFunction,ComponentPad*%
%ADD16R,1.700000X1.700000*%
%TD*%
%TA.AperFunction,ViaPad*%
%ADD17C,0.800000*%
%TD*%
%TA.AperFunction,Conductor*%
%ADD18C,0.250000*%
%TD*%
%TA.AperFunction,Conductor*%
%ADD19C,0.254000*%
%TD*%
%TA.AperFunction,Conductor*%
%ADD20C,0.100000*%
%TD*%
%TA.AperFunction,NonConductor*%
%ADD21C,0.254000*%
%TD*%
%TA.AperFunction,NonConductor*%
%ADD22C,0.100000*%
%TD*%
G04 APERTURE END LIST*
D10*
%TO.P,X301,H1*%
%TO.N,/AGND3*%
X107500000Y-133500000D03*
D11*
%TO.P,X301,H2*%
%TO.N,/X3*%
X110000000Y-133500000D03*
%TO.P,X301,H3*%
%TO.N,/AVDD3*%
X112500000Y-133500000D03*
D12*
%TO.P,X301,S3*%
%TO.N,/AGND3*%
X115000000Y-131250000D03*
%TO.P,X301,S2*%
X105000000Y-131250000D03*
%TO.P,X301,S1*%
X105000000Y-118750000D03*
%TO.P,X301,S4*%
X115000000Y-118750000D03*
D11*
%TO.P,X301,V3*%
%TO.N,/AVDD3*%
X118500000Y-127500000D03*
%TO.P,X301,V2*%
%TO.N,/Y3*%
X118500000Y-125000000D03*
D10*
%TO.P,X301,V1*%
%TO.N,/AGND3*%
X118500000Y-122500000D03*
%TO.P,X301,B1B*%
%TO.N,/DGND3*%
X99750000Y-128250000D03*
%TO.P,X301,B1A*%
X99750000Y-121750000D03*
D11*
%TO.P,X301,B2B*%
%TO.N,/BTN3*%
X104250000Y-128250000D03*
%TO.P,X301,B2A*%
X104250000Y-121750000D03*
%TD*%
D13*
%TO.P,J403,6*%
%TO.N,/DGND1_4*%
X114970000Y-105320000D03*
%TO.P,J403,5*%
%TO.N,/BTN3_4*%
X116240000Y-105320000D03*
%TO.P,J403,4*%
%TO.N,/AGND3_4*%
X117510000Y-105320000D03*
%TO.P,J403,3*%
%TO.N,/Y3_4*%
X118780000Y-105320000D03*
%TO.P,J403,2*%
%TO.N,/X3_4*%
X120050000Y-105320000D03*
D14*
%TO.P,J403,1*%
%TO.N,/AVDD3_4*%
X121320000Y-105320000D03*
%TD*%
D13*
%TO.P,J402,2*%
%TO.N,/DGND1_4*%
X114970000Y-110400000D03*
D14*
%TO.P,J402,1*%
%TO.N,/BTN2_4*%
X116240000Y-110400000D03*
%TD*%
D13*
%TO.P,J401,2*%
%TO.N,/DGND1_4*%
X120050000Y-110400000D03*
D14*
%TO.P,J401,1*%
%TO.N,/BTN1_4*%
X121320000Y-110400000D03*
%TD*%
D13*
%TO.P,J303,6*%
%TO.N,/DGND3*%
X98150000Y-134500000D03*
%TO.P,J303,5*%
%TO.N,/BTN3*%
X99420000Y-134500000D03*
%TO.P,J303,4*%
%TO.N,/AGND3*%
X100690000Y-134500000D03*
%TO.P,J303,3*%
%TO.N,/Y3*%
X101960000Y-134500000D03*
%TO.P,J303,2*%
%TO.N,/X3*%
X103230000Y-134500000D03*
D14*
%TO.P,J303,1*%
%TO.N,/AVDD3*%
X104500000Y-134500000D03*
%TD*%
%TO.P,J202,1*%
%TO.N,/BTN2*%
X98500000Y-109250000D03*
D13*
%TO.P,J202,2*%
%TO.N,/DGND2*%
X98500000Y-107980000D03*
%TD*%
%TO.P,J101,2*%
%TO.N,/DGND1*%
X98500000Y-95980000D03*
D14*
%TO.P,J101,1*%
%TO.N,/BTN1*%
X98500000Y-97250000D03*
%TD*%
D15*
%TO.P,CN401,8*%
%TO.N,/X3_4*%
X121320000Y-97700000D03*
%TO.P,CN401,7*%
%TO.N,/Y3_4*%
X121320000Y-100240000D03*
%TO.P,CN401,6*%
%TO.N,/AVDD3_4*%
X118780000Y-97700000D03*
%TO.P,CN401,5*%
%TO.N,/AGND3_4*%
X118780000Y-100240000D03*
%TO.P,CN401,4*%
%TO.N,/BTN3_4*%
X116240000Y-97700000D03*
%TO.P,CN401,3*%
%TO.N,/BTN2_4*%
X116240000Y-100240000D03*
%TO.P,CN401,2*%
%TO.N,/BTN1_4*%
X113700000Y-97700000D03*
D16*
%TO.P,CN401,1*%
%TO.N,/DGND1_4*%
X113700000Y-100240000D03*
%TD*%
D17*
%TO.N,/BTN2_4*%
X114000000Y-103000000D03*
%TD*%
D18*
%TO.N,/X3_4*%
X122495001Y-98875001D02*
X121320000Y-97700000D01*
X120050000Y-105004998D02*
X122495001Y-102559997D01*
X122495001Y-102559997D02*
X122495001Y-98875001D01*
X120050000Y-105320000D02*
X120050000Y-105004998D01*
%TO.N,/Y3_4*%
X121320000Y-102780000D02*
X118780000Y-105320000D01*
X121320000Y-100240000D02*
X121320000Y-102780000D01*
%TO.N,/BTN2_4*%
X116240000Y-110400000D02*
X116240000Y-109740000D01*
X116240000Y-109740000D02*
X113000000Y-106500000D01*
X113000000Y-106500000D02*
X113000000Y-104000000D01*
X113000000Y-104000000D02*
X114000000Y-103000000D01*
%TO.N,/BTN1_4*%
X114144999Y-105716001D02*
X116428998Y-108000000D01*
X115064999Y-104003999D02*
X114144999Y-104923999D01*
X114144999Y-104923999D02*
X114144999Y-105716001D01*
X113700000Y-97700000D02*
X115064999Y-99064999D01*
X115064999Y-99064999D02*
X115064999Y-104003999D01*
X118920000Y-108000000D02*
X121320000Y-110400000D01*
X116428998Y-108000000D02*
X118920000Y-108000000D01*
%TD*%
D19*
%TO.N,/AGND3*%
X121315000Y-136315000D02*
X100127000Y-136315000D01*
X100127000Y-135485152D01*
X100129794Y-135487123D01*
X100333136Y-135577446D01*
X100388126Y-135594119D01*
X100563000Y-135467954D01*
X100563000Y-134627000D01*
X100551974Y-134627000D01*
X100555000Y-134611788D01*
X100555000Y-134388212D01*
X100551974Y-134373000D01*
X100563000Y-134373000D01*
X100563000Y-133532046D01*
X100817000Y-133532046D01*
X100817000Y-134373000D01*
X100828026Y-134373000D01*
X100825000Y-134388212D01*
X100825000Y-134611788D01*
X100828026Y-134627000D01*
X100817000Y-134627000D01*
X100817000Y-135467954D01*
X100991874Y-135594119D01*
X101046864Y-135577446D01*
X101250206Y-135487123D01*
X101320342Y-135437647D01*
X101422376Y-135505824D01*
X101628933Y-135591383D01*
X101848212Y-135635000D01*
X102071788Y-135635000D01*
X102291067Y-135591383D01*
X102497624Y-135505824D01*
X102595000Y-135440759D01*
X102692376Y-135505824D01*
X102898933Y-135591383D01*
X103118212Y-135635000D01*
X103341788Y-135635000D01*
X103561067Y-135591383D01*
X103672774Y-135545112D01*
X103755820Y-135589502D01*
X103875518Y-135625812D01*
X104000000Y-135638072D01*
X105000000Y-135638072D01*
X105124482Y-135625812D01*
X105244180Y-135589502D01*
X105354494Y-135530537D01*
X105451185Y-135451185D01*
X105530537Y-135354494D01*
X105589502Y-135244180D01*
X105625812Y-135124482D01*
X105638072Y-135000000D01*
X105638072Y-134389000D01*
X105972928Y-134389000D01*
X105985188Y-134513482D01*
X106021498Y-134633180D01*
X106080463Y-134743494D01*
X106159815Y-134840185D01*
X106256506Y-134919537D01*
X106366820Y-134978502D01*
X106486518Y-135014812D01*
X106611000Y-135027072D01*
X107214250Y-135024000D01*
X107373000Y-134865250D01*
X107373000Y-133627000D01*
X106134750Y-133627000D01*
X105976000Y-133785750D01*
X105972928Y-134389000D01*
X105638072Y-134389000D01*
X105638072Y-134000000D01*
X105625812Y-133875518D01*
X105589502Y-133755820D01*
X105530537Y-133645506D01*
X105451185Y-133548815D01*
X105354494Y-133469463D01*
X105244180Y-133410498D01*
X105124482Y-133374188D01*
X105000000Y-133361928D01*
X104000000Y-133361928D01*
X103875518Y-133374188D01*
X103755820Y-133410498D01*
X103672774Y-133454888D01*
X103561067Y-133408617D01*
X103341788Y-133365000D01*
X103118212Y-133365000D01*
X102898933Y-133408617D01*
X102692376Y-133494176D01*
X102595000Y-133559241D01*
X102497624Y-133494176D01*
X102291067Y-133408617D01*
X102071788Y-133365000D01*
X101848212Y-133365000D01*
X101628933Y-133408617D01*
X101422376Y-133494176D01*
X101320342Y-133562353D01*
X101250206Y-133512877D01*
X101046864Y-133422554D01*
X100991874Y-133405881D01*
X100817000Y-133532046D01*
X100563000Y-133532046D01*
X100388126Y-133405881D01*
X100333136Y-133422554D01*
X100196247Y-133483359D01*
X101286606Y-132393000D01*
X103218928Y-132393000D01*
X103231188Y-132517482D01*
X103267498Y-132637180D01*
X103326463Y-132747494D01*
X103405815Y-132844185D01*
X103502506Y-132923537D01*
X103612820Y-132982502D01*
X103732518Y-133018812D01*
X103857000Y-133031072D01*
X104714250Y-133028000D01*
X104873000Y-132869250D01*
X104873000Y-131377000D01*
X105127000Y-131377000D01*
X105127000Y-132869250D01*
X105285750Y-133028000D01*
X105975064Y-133030470D01*
X105976000Y-133214250D01*
X106134750Y-133373000D01*
X107373000Y-133373000D01*
X107373000Y-132134750D01*
X107627000Y-132134750D01*
X107627000Y-133373000D01*
X107647000Y-133373000D01*
X107647000Y-133627000D01*
X107627000Y-133627000D01*
X107627000Y-134865250D01*
X107785750Y-135024000D01*
X108389000Y-135027072D01*
X108513482Y-135014812D01*
X108633180Y-134978502D01*
X108743494Y-134919537D01*
X108840185Y-134840185D01*
X108919537Y-134743494D01*
X108978299Y-134633560D01*
X109028507Y-134683768D01*
X109278115Y-134850551D01*
X109555466Y-134965434D01*
X109849899Y-135024000D01*
X110150101Y-135024000D01*
X110444534Y-134965434D01*
X110721885Y-134850551D01*
X110971493Y-134683768D01*
X111183768Y-134471493D01*
X111250000Y-134372370D01*
X111316232Y-134471493D01*
X111528507Y-134683768D01*
X111778115Y-134850551D01*
X112055466Y-134965434D01*
X112349899Y-135024000D01*
X112650101Y-135024000D01*
X112944534Y-134965434D01*
X113221885Y-134850551D01*
X113471493Y-134683768D01*
X113683768Y-134471493D01*
X113850551Y-134221885D01*
X113965434Y-133944534D01*
X114024000Y-133650101D01*
X114024000Y-133349899D01*
X113965434Y-133055466D01*
X113955184Y-133030720D01*
X114714250Y-133028000D01*
X114873000Y-132869250D01*
X114873000Y-131377000D01*
X115127000Y-131377000D01*
X115127000Y-132869250D01*
X115285750Y-133028000D01*
X116143000Y-133031072D01*
X116267482Y-133018812D01*
X116387180Y-132982502D01*
X116497494Y-132923537D01*
X116594185Y-132844185D01*
X116673537Y-132747494D01*
X116732502Y-132637180D01*
X116768812Y-132517482D01*
X116781072Y-132393000D01*
X116778000Y-131535750D01*
X116619250Y-131377000D01*
X115127000Y-131377000D01*
X114873000Y-131377000D01*
X113380750Y-131377000D01*
X113222000Y-131535750D01*
X113219804Y-132148587D01*
X112944534Y-132034566D01*
X112650101Y-131976000D01*
X112349899Y-131976000D01*
X112055466Y-132034566D01*
X111778115Y-132149449D01*
X111528507Y-132316232D01*
X111316232Y-132528507D01*
X111250000Y-132627630D01*
X111183768Y-132528507D01*
X110971493Y-132316232D01*
X110721885Y-132149449D01*
X110444534Y-132034566D01*
X110150101Y-131976000D01*
X109849899Y-131976000D01*
X109555466Y-132034566D01*
X109278115Y-132149449D01*
X109028507Y-132316232D01*
X108978299Y-132366440D01*
X108919537Y-132256506D01*
X108840185Y-132159815D01*
X108743494Y-132080463D01*
X108633180Y-132021498D01*
X108513482Y-131985188D01*
X108389000Y-131972928D01*
X107785750Y-131976000D01*
X107627000Y-132134750D01*
X107373000Y-132134750D01*
X107214250Y-131976000D01*
X106779570Y-131973786D01*
X106778000Y-131535750D01*
X106619250Y-131377000D01*
X105127000Y-131377000D01*
X104873000Y-131377000D01*
X103380750Y-131377000D01*
X103222000Y-131535750D01*
X103218928Y-132393000D01*
X101286606Y-132393000D01*
X103220191Y-130459415D01*
X103222000Y-130964250D01*
X103380750Y-131123000D01*
X104873000Y-131123000D01*
X104873000Y-131103000D01*
X105127000Y-131103000D01*
X105127000Y-131123000D01*
X106619250Y-131123000D01*
X106778000Y-130964250D01*
X106781072Y-130107000D01*
X113218928Y-130107000D01*
X113222000Y-130964250D01*
X113380750Y-131123000D01*
X114873000Y-131123000D01*
X114873000Y-129630750D01*
X115127000Y-129630750D01*
X115127000Y-131123000D01*
X116619250Y-131123000D01*
X116778000Y-130964250D01*
X116781072Y-130107000D01*
X116768812Y-129982518D01*
X116732502Y-129862820D01*
X116673537Y-129752506D01*
X116594185Y-129655815D01*
X116497494Y-129576463D01*
X116387180Y-129517498D01*
X116267482Y-129481188D01*
X116143000Y-129468928D01*
X115285750Y-129472000D01*
X115127000Y-129630750D01*
X114873000Y-129630750D01*
X114714250Y-129472000D01*
X113857000Y-129468928D01*
X113732518Y-129481188D01*
X113612820Y-129517498D01*
X113502506Y-129576463D01*
X113405815Y-129655815D01*
X113326463Y-129752506D01*
X113267498Y-129862820D01*
X113231188Y-129982518D01*
X113218928Y-130107000D01*
X106781072Y-130107000D01*
X106768812Y-129982518D01*
X106732502Y-129862820D01*
X106673537Y-129752506D01*
X106594185Y-129655815D01*
X106497494Y-129576463D01*
X106387180Y-129517498D01*
X106267482Y-129481188D01*
X106143000Y-129468928D01*
X105285750Y-129472000D01*
X105127002Y-129630748D01*
X105127002Y-129496905D01*
X105221493Y-129433768D01*
X105433768Y-129221493D01*
X105600551Y-128971885D01*
X105715434Y-128694534D01*
X105774000Y-128400101D01*
X105774000Y-128099899D01*
X105715434Y-127805466D01*
X105600551Y-127528115D01*
X105433768Y-127278507D01*
X105221493Y-127066232D01*
X105127000Y-127003094D01*
X105127000Y-123389000D01*
X116972928Y-123389000D01*
X116985188Y-123513482D01*
X117021498Y-123633180D01*
X117080463Y-123743494D01*
X117159815Y-123840185D01*
X117256506Y-123919537D01*
X117366440Y-123978299D01*
X117316232Y-124028507D01*
X117149449Y-124278115D01*
X117034566Y-124555466D01*
X116976000Y-124849899D01*
X116976000Y-125150101D01*
X117034566Y-125444534D01*
X117149449Y-125721885D01*
X117316232Y-125971493D01*
X117528507Y-126183768D01*
X117627630Y-126250000D01*
X117528507Y-126316232D01*
X117316232Y-126528507D01*
X117149449Y-126778115D01*
X117034566Y-127055466D01*
X116976000Y-127349899D01*
X116976000Y-127650101D01*
X117034566Y-127944534D01*
X117149449Y-128221885D01*
X117316232Y-128471493D01*
X117528507Y-128683768D01*
X117778115Y-128850551D01*
X118055466Y-128965434D01*
X118349899Y-129024000D01*
X118650101Y-129024000D01*
X118944534Y-128965434D01*
X119221885Y-128850551D01*
X119471493Y-128683768D01*
X119683768Y-128471493D01*
X119850551Y-128221885D01*
X119965434Y-127944534D01*
X120024000Y-127650101D01*
X120024000Y-127349899D01*
X119965434Y-127055466D01*
X119850551Y-126778115D01*
X119683768Y-126528507D01*
X119471493Y-126316232D01*
X119372370Y-126250000D01*
X119471493Y-126183768D01*
X119683768Y-125971493D01*
X119850551Y-125721885D01*
X119965434Y-125444534D01*
X120024000Y-125150101D01*
X120024000Y-124849899D01*
X119965434Y-124555466D01*
X119850551Y-124278115D01*
X119683768Y-124028507D01*
X119633560Y-123978299D01*
X119743494Y-123919537D01*
X119840185Y-123840185D01*
X119919537Y-123743494D01*
X119978502Y-123633180D01*
X120014812Y-123513482D01*
X120027072Y-123389000D01*
X120024000Y-122785750D01*
X119865250Y-122627000D01*
X118627000Y-122627000D01*
X118627000Y-122647000D01*
X118373000Y-122647000D01*
X118373000Y-122627000D01*
X117134750Y-122627000D01*
X116976000Y-122785750D01*
X116972928Y-123389000D01*
X105127000Y-123389000D01*
X105127000Y-122996906D01*
X105221493Y-122933768D01*
X105433768Y-122721493D01*
X105600551Y-122471885D01*
X105715434Y-122194534D01*
X105774000Y-121900101D01*
X105774000Y-121611000D01*
X116972928Y-121611000D01*
X116976000Y-122214250D01*
X117134750Y-122373000D01*
X118373000Y-122373000D01*
X118373000Y-121134750D01*
X118627000Y-121134750D01*
X118627000Y-122373000D01*
X119865250Y-122373000D01*
X120024000Y-122214250D01*
X120027072Y-121611000D01*
X120014812Y-121486518D01*
X119978502Y-121366820D01*
X119919537Y-121256506D01*
X119840185Y-121159815D01*
X119743494Y-121080463D01*
X119633180Y-121021498D01*
X119513482Y-120985188D01*
X119389000Y-120972928D01*
X118785750Y-120976000D01*
X118627000Y-121134750D01*
X118373000Y-121134750D01*
X118214250Y-120976000D01*
X117611000Y-120972928D01*
X117486518Y-120985188D01*
X117366820Y-121021498D01*
X117256506Y-121080463D01*
X117159815Y-121159815D01*
X117080463Y-121256506D01*
X117021498Y-121366820D01*
X116985188Y-121486518D01*
X116972928Y-121611000D01*
X105774000Y-121611000D01*
X105774000Y-121599899D01*
X105715434Y-121305466D01*
X105600551Y-121028115D01*
X105433768Y-120778507D01*
X105221493Y-120566232D01*
X105127002Y-120503095D01*
X105127002Y-120369252D01*
X105285750Y-120528000D01*
X106143000Y-120531072D01*
X106267482Y-120518812D01*
X106387180Y-120482502D01*
X106497494Y-120423537D01*
X106594185Y-120344185D01*
X106673537Y-120247494D01*
X106732502Y-120137180D01*
X106768812Y-120017482D01*
X106781072Y-119893000D01*
X113218928Y-119893000D01*
X113231188Y-120017482D01*
X113267498Y-120137180D01*
X113326463Y-120247494D01*
X113405815Y-120344185D01*
X113502506Y-120423537D01*
X113612820Y-120482502D01*
X113732518Y-120518812D01*
X113857000Y-120531072D01*
X114714250Y-120528000D01*
X114873000Y-120369250D01*
X114873000Y-118877000D01*
X115127000Y-118877000D01*
X115127000Y-120369250D01*
X115285750Y-120528000D01*
X116143000Y-120531072D01*
X116267482Y-120518812D01*
X116387180Y-120482502D01*
X116497494Y-120423537D01*
X116594185Y-120344185D01*
X116673537Y-120247494D01*
X116732502Y-120137180D01*
X116768812Y-120017482D01*
X116781072Y-119893000D01*
X116778000Y-119035750D01*
X116619250Y-118877000D01*
X115127000Y-118877000D01*
X114873000Y-118877000D01*
X113380750Y-118877000D01*
X113222000Y-119035750D01*
X113218928Y-119893000D01*
X106781072Y-119893000D01*
X106778000Y-119035750D01*
X106619250Y-118877000D01*
X105127000Y-118877000D01*
X105127000Y-118897000D01*
X104873000Y-118897000D01*
X104873000Y-118877000D01*
X104853000Y-118877000D01*
X104853000Y-118623000D01*
X104873000Y-118623000D01*
X104873000Y-117130750D01*
X105127000Y-117130750D01*
X105127000Y-118623000D01*
X106619250Y-118623000D01*
X106778000Y-118464250D01*
X106781072Y-117607000D01*
X113218928Y-117607000D01*
X113222000Y-118464250D01*
X113380750Y-118623000D01*
X114873000Y-118623000D01*
X114873000Y-117130750D01*
X115127000Y-117130750D01*
X115127000Y-118623000D01*
X116619250Y-118623000D01*
X116778000Y-118464250D01*
X116781072Y-117607000D01*
X116768812Y-117482518D01*
X116732502Y-117362820D01*
X116673537Y-117252506D01*
X116594185Y-117155815D01*
X116497494Y-117076463D01*
X116387180Y-117017498D01*
X116267482Y-116981188D01*
X116143000Y-116968928D01*
X115285750Y-116972000D01*
X115127000Y-117130750D01*
X114873000Y-117130750D01*
X114714250Y-116972000D01*
X113857000Y-116968928D01*
X113732518Y-116981188D01*
X113612820Y-117017498D01*
X113502506Y-117076463D01*
X113405815Y-117155815D01*
X113326463Y-117252506D01*
X113267498Y-117362820D01*
X113231188Y-117482518D01*
X113218928Y-117607000D01*
X106781072Y-117607000D01*
X106768812Y-117482518D01*
X106732502Y-117362820D01*
X106673537Y-117252506D01*
X106594185Y-117155815D01*
X106497494Y-117076463D01*
X106387180Y-117017498D01*
X106267482Y-116981188D01*
X106143000Y-116968928D01*
X105285750Y-116972000D01*
X105127000Y-117130750D01*
X104873000Y-117130750D01*
X104714250Y-116972000D01*
X104127000Y-116969896D01*
X104127000Y-115627000D01*
X121315001Y-115627000D01*
X121315000Y-136315000D01*
%TA.AperFunction,Conductor*%
D20*
G36*
X121315000Y-136315000D02*
G01*
X100127000Y-136315000D01*
X100127000Y-135485152D01*
X100129794Y-135487123D01*
X100333136Y-135577446D01*
X100388126Y-135594119D01*
X100563000Y-135467954D01*
X100563000Y-134627000D01*
X100551974Y-134627000D01*
X100555000Y-134611788D01*
X100555000Y-134388212D01*
X100551974Y-134373000D01*
X100563000Y-134373000D01*
X100563000Y-133532046D01*
X100817000Y-133532046D01*
X100817000Y-134373000D01*
X100828026Y-134373000D01*
X100825000Y-134388212D01*
X100825000Y-134611788D01*
X100828026Y-134627000D01*
X100817000Y-134627000D01*
X100817000Y-135467954D01*
X100991874Y-135594119D01*
X101046864Y-135577446D01*
X101250206Y-135487123D01*
X101320342Y-135437647D01*
X101422376Y-135505824D01*
X101628933Y-135591383D01*
X101848212Y-135635000D01*
X102071788Y-135635000D01*
X102291067Y-135591383D01*
X102497624Y-135505824D01*
X102595000Y-135440759D01*
X102692376Y-135505824D01*
X102898933Y-135591383D01*
X103118212Y-135635000D01*
X103341788Y-135635000D01*
X103561067Y-135591383D01*
X103672774Y-135545112D01*
X103755820Y-135589502D01*
X103875518Y-135625812D01*
X104000000Y-135638072D01*
X105000000Y-135638072D01*
X105124482Y-135625812D01*
X105244180Y-135589502D01*
X105354494Y-135530537D01*
X105451185Y-135451185D01*
X105530537Y-135354494D01*
X105589502Y-135244180D01*
X105625812Y-135124482D01*
X105638072Y-135000000D01*
X105638072Y-134389000D01*
X105972928Y-134389000D01*
X105985188Y-134513482D01*
X106021498Y-134633180D01*
X106080463Y-134743494D01*
X106159815Y-134840185D01*
X106256506Y-134919537D01*
X106366820Y-134978502D01*
X106486518Y-135014812D01*
X106611000Y-135027072D01*
X107214250Y-135024000D01*
X107373000Y-134865250D01*
X107373000Y-133627000D01*
X106134750Y-133627000D01*
X105976000Y-133785750D01*
X105972928Y-134389000D01*
X105638072Y-134389000D01*
X105638072Y-134000000D01*
X105625812Y-133875518D01*
X105589502Y-133755820D01*
X105530537Y-133645506D01*
X105451185Y-133548815D01*
X105354494Y-133469463D01*
X105244180Y-133410498D01*
X105124482Y-133374188D01*
X105000000Y-133361928D01*
X104000000Y-133361928D01*
X103875518Y-133374188D01*
X103755820Y-133410498D01*
X103672774Y-133454888D01*
X103561067Y-133408617D01*
X103341788Y-133365000D01*
X103118212Y-133365000D01*
X102898933Y-133408617D01*
X102692376Y-133494176D01*
X102595000Y-133559241D01*
X102497624Y-133494176D01*
X102291067Y-133408617D01*
X102071788Y-133365000D01*
X101848212Y-133365000D01*
X101628933Y-133408617D01*
X101422376Y-133494176D01*
X101320342Y-133562353D01*
X101250206Y-133512877D01*
X101046864Y-133422554D01*
X100991874Y-133405881D01*
X100817000Y-133532046D01*
X100563000Y-133532046D01*
X100388126Y-133405881D01*
X100333136Y-133422554D01*
X100196247Y-133483359D01*
X101286606Y-132393000D01*
X103218928Y-132393000D01*
X103231188Y-132517482D01*
X103267498Y-132637180D01*
X103326463Y-132747494D01*
X103405815Y-132844185D01*
X103502506Y-132923537D01*
X103612820Y-132982502D01*
X103732518Y-133018812D01*
X103857000Y-133031072D01*
X104714250Y-133028000D01*
X104873000Y-132869250D01*
X104873000Y-131377000D01*
X105127000Y-131377000D01*
X105127000Y-132869250D01*
X105285750Y-133028000D01*
X105975064Y-133030470D01*
X105976000Y-133214250D01*
X106134750Y-133373000D01*
X107373000Y-133373000D01*
X107373000Y-132134750D01*
X107627000Y-132134750D01*
X107627000Y-133373000D01*
X107647000Y-133373000D01*
X107647000Y-133627000D01*
X107627000Y-133627000D01*
X107627000Y-134865250D01*
X107785750Y-135024000D01*
X108389000Y-135027072D01*
X108513482Y-135014812D01*
X108633180Y-134978502D01*
X108743494Y-134919537D01*
X108840185Y-134840185D01*
X108919537Y-134743494D01*
X108978299Y-134633560D01*
X109028507Y-134683768D01*
X109278115Y-134850551D01*
X109555466Y-134965434D01*
X109849899Y-135024000D01*
X110150101Y-135024000D01*
X110444534Y-134965434D01*
X110721885Y-134850551D01*
X110971493Y-134683768D01*
X111183768Y-134471493D01*
X111250000Y-134372370D01*
X111316232Y-134471493D01*
X111528507Y-134683768D01*
X111778115Y-134850551D01*
X112055466Y-134965434D01*
X112349899Y-135024000D01*
X112650101Y-135024000D01*
X112944534Y-134965434D01*
X113221885Y-134850551D01*
X113471493Y-134683768D01*
X113683768Y-134471493D01*
X113850551Y-134221885D01*
X113965434Y-133944534D01*
X114024000Y-133650101D01*
X114024000Y-133349899D01*
X113965434Y-133055466D01*
X113955184Y-133030720D01*
X114714250Y-133028000D01*
X114873000Y-132869250D01*
X114873000Y-131377000D01*
X115127000Y-131377000D01*
X115127000Y-132869250D01*
X115285750Y-133028000D01*
X116143000Y-133031072D01*
X116267482Y-133018812D01*
X116387180Y-132982502D01*
X116497494Y-132923537D01*
X116594185Y-132844185D01*
X116673537Y-132747494D01*
X116732502Y-132637180D01*
X116768812Y-132517482D01*
X116781072Y-132393000D01*
X116778000Y-131535750D01*
X116619250Y-131377000D01*
X115127000Y-131377000D01*
X114873000Y-131377000D01*
X113380750Y-131377000D01*
X113222000Y-131535750D01*
X113219804Y-132148587D01*
X112944534Y-132034566D01*
X112650101Y-131976000D01*
X112349899Y-131976000D01*
X112055466Y-132034566D01*
X111778115Y-132149449D01*
X111528507Y-132316232D01*
X111316232Y-132528507D01*
X111250000Y-132627630D01*
X111183768Y-132528507D01*
X110971493Y-132316232D01*
X110721885Y-132149449D01*
X110444534Y-132034566D01*
X110150101Y-131976000D01*
X109849899Y-131976000D01*
X109555466Y-132034566D01*
X109278115Y-132149449D01*
X109028507Y-132316232D01*
X108978299Y-132366440D01*
X108919537Y-132256506D01*
X108840185Y-132159815D01*
X108743494Y-132080463D01*
X108633180Y-132021498D01*
X108513482Y-131985188D01*
X108389000Y-131972928D01*
X107785750Y-131976000D01*
X107627000Y-132134750D01*
X107373000Y-132134750D01*
X107214250Y-131976000D01*
X106779570Y-131973786D01*
X106778000Y-131535750D01*
X106619250Y-131377000D01*
X105127000Y-131377000D01*
X104873000Y-131377000D01*
X103380750Y-131377000D01*
X103222000Y-131535750D01*
X103218928Y-132393000D01*
X101286606Y-132393000D01*
X103220191Y-130459415D01*
X103222000Y-130964250D01*
X103380750Y-131123000D01*
X104873000Y-131123000D01*
X104873000Y-131103000D01*
X105127000Y-131103000D01*
X105127000Y-131123000D01*
X106619250Y-131123000D01*
X106778000Y-130964250D01*
X106781072Y-130107000D01*
X113218928Y-130107000D01*
X113222000Y-130964250D01*
X113380750Y-131123000D01*
X114873000Y-131123000D01*
X114873000Y-129630750D01*
X115127000Y-129630750D01*
X115127000Y-131123000D01*
X116619250Y-131123000D01*
X116778000Y-130964250D01*
X116781072Y-130107000D01*
X116768812Y-129982518D01*
X116732502Y-129862820D01*
X116673537Y-129752506D01*
X116594185Y-129655815D01*
X116497494Y-129576463D01*
X116387180Y-129517498D01*
X116267482Y-129481188D01*
X116143000Y-129468928D01*
X115285750Y-129472000D01*
X115127000Y-129630750D01*
X114873000Y-129630750D01*
X114714250Y-129472000D01*
X113857000Y-129468928D01*
X113732518Y-129481188D01*
X113612820Y-129517498D01*
X113502506Y-129576463D01*
X113405815Y-129655815D01*
X113326463Y-129752506D01*
X113267498Y-129862820D01*
X113231188Y-129982518D01*
X113218928Y-130107000D01*
X106781072Y-130107000D01*
X106768812Y-129982518D01*
X106732502Y-129862820D01*
X106673537Y-129752506D01*
X106594185Y-129655815D01*
X106497494Y-129576463D01*
X106387180Y-129517498D01*
X106267482Y-129481188D01*
X106143000Y-129468928D01*
X105285750Y-129472000D01*
X105127002Y-129630748D01*
X105127002Y-129496905D01*
X105221493Y-129433768D01*
X105433768Y-129221493D01*
X105600551Y-128971885D01*
X105715434Y-128694534D01*
X105774000Y-128400101D01*
X105774000Y-128099899D01*
X105715434Y-127805466D01*
X105600551Y-127528115D01*
X105433768Y-127278507D01*
X105221493Y-127066232D01*
X105127000Y-127003094D01*
X105127000Y-123389000D01*
X116972928Y-123389000D01*
X116985188Y-123513482D01*
X117021498Y-123633180D01*
X117080463Y-123743494D01*
X117159815Y-123840185D01*
X117256506Y-123919537D01*
X117366440Y-123978299D01*
X117316232Y-124028507D01*
X117149449Y-124278115D01*
X117034566Y-124555466D01*
X116976000Y-124849899D01*
X116976000Y-125150101D01*
X117034566Y-125444534D01*
X117149449Y-125721885D01*
X117316232Y-125971493D01*
X117528507Y-126183768D01*
X117627630Y-126250000D01*
X117528507Y-126316232D01*
X117316232Y-126528507D01*
X117149449Y-126778115D01*
X117034566Y-127055466D01*
X116976000Y-127349899D01*
X116976000Y-127650101D01*
X117034566Y-127944534D01*
X117149449Y-128221885D01*
X117316232Y-128471493D01*
X117528507Y-128683768D01*
X117778115Y-128850551D01*
X118055466Y-128965434D01*
X118349899Y-129024000D01*
X118650101Y-129024000D01*
X118944534Y-128965434D01*
X119221885Y-128850551D01*
X119471493Y-128683768D01*
X119683768Y-128471493D01*
X119850551Y-128221885D01*
X119965434Y-127944534D01*
X120024000Y-127650101D01*
X120024000Y-127349899D01*
X119965434Y-127055466D01*
X119850551Y-126778115D01*
X119683768Y-126528507D01*
X119471493Y-126316232D01*
X119372370Y-126250000D01*
X119471493Y-126183768D01*
X119683768Y-125971493D01*
X119850551Y-125721885D01*
X119965434Y-125444534D01*
X120024000Y-125150101D01*
X120024000Y-124849899D01*
X119965434Y-124555466D01*
X119850551Y-124278115D01*
X119683768Y-124028507D01*
X119633560Y-123978299D01*
X119743494Y-123919537D01*
X119840185Y-123840185D01*
X119919537Y-123743494D01*
X119978502Y-123633180D01*
X120014812Y-123513482D01*
X120027072Y-123389000D01*
X120024000Y-122785750D01*
X119865250Y-122627000D01*
X118627000Y-122627000D01*
X118627000Y-122647000D01*
X118373000Y-122647000D01*
X118373000Y-122627000D01*
X117134750Y-122627000D01*
X116976000Y-122785750D01*
X116972928Y-123389000D01*
X105127000Y-123389000D01*
X105127000Y-122996906D01*
X105221493Y-122933768D01*
X105433768Y-122721493D01*
X105600551Y-122471885D01*
X105715434Y-122194534D01*
X105774000Y-121900101D01*
X105774000Y-121611000D01*
X116972928Y-121611000D01*
X116976000Y-122214250D01*
X117134750Y-122373000D01*
X118373000Y-122373000D01*
X118373000Y-121134750D01*
X118627000Y-121134750D01*
X118627000Y-122373000D01*
X119865250Y-122373000D01*
X120024000Y-122214250D01*
X120027072Y-121611000D01*
X120014812Y-121486518D01*
X119978502Y-121366820D01*
X119919537Y-121256506D01*
X119840185Y-121159815D01*
X119743494Y-121080463D01*
X119633180Y-121021498D01*
X119513482Y-120985188D01*
X119389000Y-120972928D01*
X118785750Y-120976000D01*
X118627000Y-121134750D01*
X118373000Y-121134750D01*
X118214250Y-120976000D01*
X117611000Y-120972928D01*
X117486518Y-120985188D01*
X117366820Y-121021498D01*
X117256506Y-121080463D01*
X117159815Y-121159815D01*
X117080463Y-121256506D01*
X117021498Y-121366820D01*
X116985188Y-121486518D01*
X116972928Y-121611000D01*
X105774000Y-121611000D01*
X105774000Y-121599899D01*
X105715434Y-121305466D01*
X105600551Y-121028115D01*
X105433768Y-120778507D01*
X105221493Y-120566232D01*
X105127002Y-120503095D01*
X105127002Y-120369252D01*
X105285750Y-120528000D01*
X106143000Y-120531072D01*
X106267482Y-120518812D01*
X106387180Y-120482502D01*
X106497494Y-120423537D01*
X106594185Y-120344185D01*
X106673537Y-120247494D01*
X106732502Y-120137180D01*
X106768812Y-120017482D01*
X106781072Y-119893000D01*
X113218928Y-119893000D01*
X113231188Y-120017482D01*
X113267498Y-120137180D01*
X113326463Y-120247494D01*
X113405815Y-120344185D01*
X113502506Y-120423537D01*
X113612820Y-120482502D01*
X113732518Y-120518812D01*
X113857000Y-120531072D01*
X114714250Y-120528000D01*
X114873000Y-120369250D01*
X114873000Y-118877000D01*
X115127000Y-118877000D01*
X115127000Y-120369250D01*
X115285750Y-120528000D01*
X116143000Y-120531072D01*
X116267482Y-120518812D01*
X116387180Y-120482502D01*
X116497494Y-120423537D01*
X116594185Y-120344185D01*
X116673537Y-120247494D01*
X116732502Y-120137180D01*
X116768812Y-120017482D01*
X116781072Y-119893000D01*
X116778000Y-119035750D01*
X116619250Y-118877000D01*
X115127000Y-118877000D01*
X114873000Y-118877000D01*
X113380750Y-118877000D01*
X113222000Y-119035750D01*
X113218928Y-119893000D01*
X106781072Y-119893000D01*
X106778000Y-119035750D01*
X106619250Y-118877000D01*
X105127000Y-118877000D01*
X105127000Y-118897000D01*
X104873000Y-118897000D01*
X104873000Y-118877000D01*
X104853000Y-118877000D01*
X104853000Y-118623000D01*
X104873000Y-118623000D01*
X104873000Y-117130750D01*
X105127000Y-117130750D01*
X105127000Y-118623000D01*
X106619250Y-118623000D01*
X106778000Y-118464250D01*
X106781072Y-117607000D01*
X113218928Y-117607000D01*
X113222000Y-118464250D01*
X113380750Y-118623000D01*
X114873000Y-118623000D01*
X114873000Y-117130750D01*
X115127000Y-117130750D01*
X115127000Y-118623000D01*
X116619250Y-118623000D01*
X116778000Y-118464250D01*
X116781072Y-117607000D01*
X116768812Y-117482518D01*
X116732502Y-117362820D01*
X116673537Y-117252506D01*
X116594185Y-117155815D01*
X116497494Y-117076463D01*
X116387180Y-117017498D01*
X116267482Y-116981188D01*
X116143000Y-116968928D01*
X115285750Y-116972000D01*
X115127000Y-117130750D01*
X114873000Y-117130750D01*
X114714250Y-116972000D01*
X113857000Y-116968928D01*
X113732518Y-116981188D01*
X113612820Y-117017498D01*
X113502506Y-117076463D01*
X113405815Y-117155815D01*
X113326463Y-117252506D01*
X113267498Y-117362820D01*
X113231188Y-117482518D01*
X113218928Y-117607000D01*
X106781072Y-117607000D01*
X106768812Y-117482518D01*
X106732502Y-117362820D01*
X106673537Y-117252506D01*
X106594185Y-117155815D01*
X106497494Y-117076463D01*
X106387180Y-117017498D01*
X106267482Y-116981188D01*
X106143000Y-116968928D01*
X105285750Y-116972000D01*
X105127000Y-117130750D01*
X104873000Y-117130750D01*
X104714250Y-116972000D01*
X104127000Y-116969896D01*
X104127000Y-115627000D01*
X121315001Y-115627000D01*
X121315000Y-136315000D01*
G37*
%TD.AperFunction*%
%TD*%
D21*
X108815000Y-93466353D02*
X108811686Y-93500000D01*
X108824912Y-93634283D01*
X108864081Y-93763406D01*
X108873000Y-93780092D01*
X108873000Y-101373000D01*
X96685000Y-101373000D01*
X96685000Y-96750000D01*
X97361928Y-96750000D01*
X97361928Y-97750000D01*
X97374188Y-97874482D01*
X97410498Y-97994180D01*
X97469463Y-98104494D01*
X97548815Y-98201185D01*
X97645506Y-98280537D01*
X97755820Y-98339502D01*
X97875518Y-98375812D01*
X98000000Y-98388072D01*
X99000000Y-98388072D01*
X99124482Y-98375812D01*
X99244180Y-98339502D01*
X99354494Y-98280537D01*
X99451185Y-98201185D01*
X99530537Y-98104494D01*
X99589502Y-97994180D01*
X99625812Y-97874482D01*
X99638072Y-97750000D01*
X99638072Y-96750000D01*
X99625812Y-96625518D01*
X99589502Y-96505820D01*
X99545112Y-96422774D01*
X99591383Y-96311067D01*
X99635000Y-96091788D01*
X99635000Y-95868212D01*
X99591383Y-95648933D01*
X99505824Y-95442376D01*
X99381612Y-95256480D01*
X99223520Y-95098388D01*
X99037624Y-94974176D01*
X98831067Y-94888617D01*
X98611788Y-94845000D01*
X98388212Y-94845000D01*
X98168933Y-94888617D01*
X97962376Y-94974176D01*
X97776480Y-95098388D01*
X97618388Y-95256480D01*
X97494176Y-95442376D01*
X97408617Y-95648933D01*
X97365000Y-95868212D01*
X97365000Y-96091788D01*
X97408617Y-96311067D01*
X97454888Y-96422774D01*
X97410498Y-96505820D01*
X97374188Y-96625518D01*
X97361928Y-96750000D01*
X96685000Y-96750000D01*
X96685000Y-91685000D01*
X108815001Y-91685000D01*
X108815000Y-93466353D01*
%TA.AperFunction,NonConductor*%
D22*
G36*
X108815000Y-93466353D02*
G01*
X108811686Y-93500000D01*
X108824912Y-93634283D01*
X108864081Y-93763406D01*
X108873000Y-93780092D01*
X108873000Y-101373000D01*
X96685000Y-101373000D01*
X96685000Y-96750000D01*
X97361928Y-96750000D01*
X97361928Y-97750000D01*
X97374188Y-97874482D01*
X97410498Y-97994180D01*
X97469463Y-98104494D01*
X97548815Y-98201185D01*
X97645506Y-98280537D01*
X97755820Y-98339502D01*
X97875518Y-98375812D01*
X98000000Y-98388072D01*
X99000000Y-98388072D01*
X99124482Y-98375812D01*
X99244180Y-98339502D01*
X99354494Y-98280537D01*
X99451185Y-98201185D01*
X99530537Y-98104494D01*
X99589502Y-97994180D01*
X99625812Y-97874482D01*
X99638072Y-97750000D01*
X99638072Y-96750000D01*
X99625812Y-96625518D01*
X99589502Y-96505820D01*
X99545112Y-96422774D01*
X99591383Y-96311067D01*
X99635000Y-96091788D01*
X99635000Y-95868212D01*
X99591383Y-95648933D01*
X99505824Y-95442376D01*
X99381612Y-95256480D01*
X99223520Y-95098388D01*
X99037624Y-94974176D01*
X98831067Y-94888617D01*
X98611788Y-94845000D01*
X98388212Y-94845000D01*
X98168933Y-94888617D01*
X97962376Y-94974176D01*
X97776480Y-95098388D01*
X97618388Y-95256480D01*
X97494176Y-95442376D01*
X97408617Y-95648933D01*
X97365000Y-95868212D01*
X97365000Y-96091788D01*
X97408617Y-96311067D01*
X97454888Y-96422774D01*
X97410498Y-96505820D01*
X97374188Y-96625518D01*
X97361928Y-96750000D01*
X96685000Y-96750000D01*
X96685000Y-91685000D01*
X108815001Y-91685000D01*
X108815000Y-93466353D01*
G37*
%TD.AperFunction*%
D21*
X108873000Y-113373000D02*
X96685000Y-113373000D01*
X96685000Y-108750000D01*
X97361928Y-108750000D01*
X97361928Y-109750000D01*
X97374188Y-109874482D01*
X97410498Y-109994180D01*
X97469463Y-110104494D01*
X97548815Y-110201185D01*
X97645506Y-110280537D01*
X97755820Y-110339502D01*
X97875518Y-110375812D01*
X98000000Y-110388072D01*
X99000000Y-110388072D01*
X99124482Y-110375812D01*
X99244180Y-110339502D01*
X99354494Y-110280537D01*
X99451185Y-110201185D01*
X99530537Y-110104494D01*
X99589502Y-109994180D01*
X99625812Y-109874482D01*
X99638072Y-109750000D01*
X99638072Y-108750000D01*
X99625812Y-108625518D01*
X99589502Y-108505820D01*
X99545112Y-108422774D01*
X99591383Y-108311067D01*
X99635000Y-108091788D01*
X99635000Y-107868212D01*
X99591383Y-107648933D01*
X99505824Y-107442376D01*
X99381612Y-107256480D01*
X99223520Y-107098388D01*
X99037624Y-106974176D01*
X98831067Y-106888617D01*
X98611788Y-106845000D01*
X98388212Y-106845000D01*
X98168933Y-106888617D01*
X97962376Y-106974176D01*
X97776480Y-107098388D01*
X97618388Y-107256480D01*
X97494176Y-107442376D01*
X97408617Y-107648933D01*
X97365000Y-107868212D01*
X97365000Y-108091788D01*
X97408617Y-108311067D01*
X97454888Y-108422774D01*
X97410498Y-108505820D01*
X97374188Y-108625518D01*
X97361928Y-108750000D01*
X96685000Y-108750000D01*
X96685000Y-103627000D01*
X108873000Y-103627000D01*
X108873000Y-113373000D01*
%TA.AperFunction,NonConductor*%
D22*
G36*
X108873000Y-113373000D02*
G01*
X96685000Y-113373000D01*
X96685000Y-108750000D01*
X97361928Y-108750000D01*
X97361928Y-109750000D01*
X97374188Y-109874482D01*
X97410498Y-109994180D01*
X97469463Y-110104494D01*
X97548815Y-110201185D01*
X97645506Y-110280537D01*
X97755820Y-110339502D01*
X97875518Y-110375812D01*
X98000000Y-110388072D01*
X99000000Y-110388072D01*
X99124482Y-110375812D01*
X99244180Y-110339502D01*
X99354494Y-110280537D01*
X99451185Y-110201185D01*
X99530537Y-110104494D01*
X99589502Y-109994180D01*
X99625812Y-109874482D01*
X99638072Y-109750000D01*
X99638072Y-108750000D01*
X99625812Y-108625518D01*
X99589502Y-108505820D01*
X99545112Y-108422774D01*
X99591383Y-108311067D01*
X99635000Y-108091788D01*
X99635000Y-107868212D01*
X99591383Y-107648933D01*
X99505824Y-107442376D01*
X99381612Y-107256480D01*
X99223520Y-107098388D01*
X99037624Y-106974176D01*
X98831067Y-106888617D01*
X98611788Y-106845000D01*
X98388212Y-106845000D01*
X98168933Y-106888617D01*
X97962376Y-106974176D01*
X97776480Y-107098388D01*
X97618388Y-107256480D01*
X97494176Y-107442376D01*
X97408617Y-107648933D01*
X97365000Y-107868212D01*
X97365000Y-108091788D01*
X97408617Y-108311067D01*
X97454888Y-108422774D01*
X97410498Y-108505820D01*
X97374188Y-108625518D01*
X97361928Y-108750000D01*
X96685000Y-108750000D01*
X96685000Y-103627000D01*
X108873000Y-103627000D01*
X108873000Y-113373000D01*
G37*
%TD.AperFunction*%
D21*
X102873000Y-121091968D02*
X102784566Y-121305466D01*
X102726000Y-121599899D01*
X102726000Y-121900101D01*
X102784566Y-122194534D01*
X102873000Y-122408032D01*
X102873000Y-127591968D01*
X102784566Y-127805466D01*
X102727367Y-128093027D01*
X100627000Y-130193394D01*
X100627000Y-129777072D01*
X100639000Y-129777072D01*
X100763482Y-129764812D01*
X100883180Y-129728502D01*
X100993494Y-129669537D01*
X101090185Y-129590185D01*
X101169537Y-129493494D01*
X101228502Y-129383180D01*
X101264812Y-129263482D01*
X101277072Y-129139000D01*
X101277072Y-127361000D01*
X101264812Y-127236518D01*
X101228502Y-127116820D01*
X101169537Y-127006506D01*
X101090185Y-126909815D01*
X100993494Y-126830463D01*
X100883180Y-126771498D01*
X100763482Y-126735188D01*
X100639000Y-126722928D01*
X100627000Y-126722928D01*
X100627000Y-123277072D01*
X100639000Y-123277072D01*
X100763482Y-123264812D01*
X100883180Y-123228502D01*
X100993494Y-123169537D01*
X101090185Y-123090185D01*
X101169537Y-122993494D01*
X101228502Y-122883180D01*
X101264812Y-122763482D01*
X101277072Y-122639000D01*
X101277072Y-120861000D01*
X101264812Y-120736518D01*
X101228502Y-120616820D01*
X101169537Y-120506506D01*
X101090185Y-120409815D01*
X100993494Y-120330463D01*
X100883180Y-120271498D01*
X100763482Y-120235188D01*
X100639000Y-120222928D01*
X98861000Y-120222928D01*
X98736518Y-120235188D01*
X98616820Y-120271498D01*
X98506506Y-120330463D01*
X98409815Y-120409815D01*
X98330463Y-120506506D01*
X98271498Y-120616820D01*
X98235188Y-120736518D01*
X98222928Y-120861000D01*
X98222928Y-122639000D01*
X98235188Y-122763482D01*
X98271498Y-122883180D01*
X98330463Y-122993494D01*
X98409815Y-123090185D01*
X98506506Y-123169537D01*
X98616820Y-123228502D01*
X98736518Y-123264812D01*
X98861000Y-123277072D01*
X98873000Y-123277072D01*
X98873000Y-126722928D01*
X98861000Y-126722928D01*
X98736518Y-126735188D01*
X98616820Y-126771498D01*
X98506506Y-126830463D01*
X98409815Y-126909815D01*
X98330463Y-127006506D01*
X98271498Y-127116820D01*
X98235188Y-127236518D01*
X98222928Y-127361000D01*
X98222928Y-129139000D01*
X98235188Y-129263482D01*
X98271498Y-129383180D01*
X98330463Y-129493494D01*
X98409815Y-129590185D01*
X98506506Y-129669537D01*
X98616820Y-129728502D01*
X98736518Y-129764812D01*
X98861000Y-129777072D01*
X98873000Y-129777072D01*
X98873000Y-131447394D01*
X97410197Y-132910197D01*
X97394403Y-132929443D01*
X97382667Y-132951399D01*
X97375440Y-132975224D01*
X97373000Y-133000000D01*
X97373000Y-133671868D01*
X97268388Y-133776480D01*
X97144176Y-133962376D01*
X97058617Y-134168933D01*
X97015000Y-134388212D01*
X97015000Y-134611788D01*
X97058617Y-134831067D01*
X97144176Y-135037624D01*
X97268388Y-135223520D01*
X97373000Y-135328132D01*
X97373000Y-135500000D01*
X97375440Y-135524776D01*
X97382667Y-135548601D01*
X97394403Y-135570557D01*
X97410197Y-135589803D01*
X97429443Y-135605597D01*
X97451399Y-135617333D01*
X97475224Y-135624560D01*
X97500000Y-135627000D01*
X97997993Y-135627000D01*
X98038212Y-135635000D01*
X98261788Y-135635000D01*
X98302007Y-135627000D01*
X98873000Y-135627000D01*
X98873000Y-136315000D01*
X96685000Y-136315000D01*
X96685000Y-115627000D01*
X102873000Y-115627000D01*
X102873000Y-121091968D01*
%TA.AperFunction,NonConductor*%
D22*
G36*
X102873000Y-121091968D02*
G01*
X102784566Y-121305466D01*
X102726000Y-121599899D01*
X102726000Y-121900101D01*
X102784566Y-122194534D01*
X102873000Y-122408032D01*
X102873000Y-127591968D01*
X102784566Y-127805466D01*
X102727367Y-128093027D01*
X100627000Y-130193394D01*
X100627000Y-129777072D01*
X100639000Y-129777072D01*
X100763482Y-129764812D01*
X100883180Y-129728502D01*
X100993494Y-129669537D01*
X101090185Y-129590185D01*
X101169537Y-129493494D01*
X101228502Y-129383180D01*
X101264812Y-129263482D01*
X101277072Y-129139000D01*
X101277072Y-127361000D01*
X101264812Y-127236518D01*
X101228502Y-127116820D01*
X101169537Y-127006506D01*
X101090185Y-126909815D01*
X100993494Y-126830463D01*
X100883180Y-126771498D01*
X100763482Y-126735188D01*
X100639000Y-126722928D01*
X100627000Y-126722928D01*
X100627000Y-123277072D01*
X100639000Y-123277072D01*
X100763482Y-123264812D01*
X100883180Y-123228502D01*
X100993494Y-123169537D01*
X101090185Y-123090185D01*
X101169537Y-122993494D01*
X101228502Y-122883180D01*
X101264812Y-122763482D01*
X101277072Y-122639000D01*
X101277072Y-120861000D01*
X101264812Y-120736518D01*
X101228502Y-120616820D01*
X101169537Y-120506506D01*
X101090185Y-120409815D01*
X100993494Y-120330463D01*
X100883180Y-120271498D01*
X100763482Y-120235188D01*
X100639000Y-120222928D01*
X98861000Y-120222928D01*
X98736518Y-120235188D01*
X98616820Y-120271498D01*
X98506506Y-120330463D01*
X98409815Y-120409815D01*
X98330463Y-120506506D01*
X98271498Y-120616820D01*
X98235188Y-120736518D01*
X98222928Y-120861000D01*
X98222928Y-122639000D01*
X98235188Y-122763482D01*
X98271498Y-122883180D01*
X98330463Y-122993494D01*
X98409815Y-123090185D01*
X98506506Y-123169537D01*
X98616820Y-123228502D01*
X98736518Y-123264812D01*
X98861000Y-123277072D01*
X98873000Y-123277072D01*
X98873000Y-126722928D01*
X98861000Y-126722928D01*
X98736518Y-126735188D01*
X98616820Y-126771498D01*
X98506506Y-126830463D01*
X98409815Y-126909815D01*
X98330463Y-127006506D01*
X98271498Y-127116820D01*
X98235188Y-127236518D01*
X98222928Y-127361000D01*
X98222928Y-129139000D01*
X98235188Y-129263482D01*
X98271498Y-129383180D01*
X98330463Y-129493494D01*
X98409815Y-129590185D01*
X98506506Y-129669537D01*
X98616820Y-129728502D01*
X98736518Y-129764812D01*
X98861000Y-129777072D01*
X98873000Y-129777072D01*
X98873000Y-131447394D01*
X97410197Y-132910197D01*
X97394403Y-132929443D01*
X97382667Y-132951399D01*
X97375440Y-132975224D01*
X97373000Y-133000000D01*
X97373000Y-133671868D01*
X97268388Y-133776480D01*
X97144176Y-133962376D01*
X97058617Y-134168933D01*
X97015000Y-134388212D01*
X97015000Y-134611788D01*
X97058617Y-134831067D01*
X97144176Y-135037624D01*
X97268388Y-135223520D01*
X97373000Y-135328132D01*
X97373000Y-135500000D01*
X97375440Y-135524776D01*
X97382667Y-135548601D01*
X97394403Y-135570557D01*
X97410197Y-135589803D01*
X97429443Y-135605597D01*
X97451399Y-135617333D01*
X97475224Y-135624560D01*
X97500000Y-135627000D01*
X97997993Y-135627000D01*
X98038212Y-135635000D01*
X98261788Y-135635000D01*
X98302007Y-135627000D01*
X98873000Y-135627000D01*
X98873000Y-136315000D01*
X96685000Y-136315000D01*
X96685000Y-115627000D01*
X102873000Y-115627000D01*
X102873000Y-121091968D01*
G37*
%TD.AperFunction*%
D21*
X124315000Y-113315000D02*
X122033647Y-113315000D01*
X122000000Y-113311686D01*
X121966353Y-113315000D01*
X121865717Y-113324912D01*
X121736594Y-113364081D01*
X121719908Y-113373000D01*
X111127000Y-113373000D01*
X111127000Y-99390000D01*
X112211928Y-99390000D01*
X112211928Y-101090000D01*
X112224188Y-101214482D01*
X112260498Y-101334180D01*
X112319463Y-101444494D01*
X112398815Y-101541185D01*
X112495506Y-101620537D01*
X112605820Y-101679502D01*
X112725518Y-101715812D01*
X112850000Y-101728072D01*
X114305000Y-101728072D01*
X114305000Y-102006059D01*
X114301898Y-102004774D01*
X114101939Y-101965000D01*
X113898061Y-101965000D01*
X113698102Y-102004774D01*
X113509744Y-102082795D01*
X113340226Y-102196063D01*
X113196063Y-102340226D01*
X113082795Y-102509744D01*
X113004774Y-102698102D01*
X112965000Y-102898061D01*
X112965000Y-102960198D01*
X112488998Y-103436201D01*
X112460000Y-103459999D01*
X112436202Y-103488997D01*
X112436201Y-103488998D01*
X112365026Y-103575724D01*
X112294454Y-103707754D01*
X112250998Y-103851015D01*
X112236324Y-104000000D01*
X112240001Y-104037332D01*
X112240000Y-106462677D01*
X112236324Y-106500000D01*
X112240000Y-106537322D01*
X112240000Y-106537332D01*
X112250997Y-106648985D01*
X112294454Y-106792246D01*
X112365026Y-106924276D01*
X112404871Y-106972826D01*
X112459999Y-107040001D01*
X112489003Y-107063804D01*
X114718073Y-109292875D01*
X114638933Y-109308617D01*
X114432376Y-109394176D01*
X114246480Y-109518388D01*
X114088388Y-109676480D01*
X113964176Y-109862376D01*
X113878617Y-110068933D01*
X113835000Y-110288212D01*
X113835000Y-110511788D01*
X113878617Y-110731067D01*
X113964176Y-110937624D01*
X114088388Y-111123520D01*
X114246480Y-111281612D01*
X114432376Y-111405824D01*
X114638933Y-111491383D01*
X114858212Y-111535000D01*
X115081788Y-111535000D01*
X115301067Y-111491383D01*
X115412774Y-111445112D01*
X115495820Y-111489502D01*
X115615518Y-111525812D01*
X115740000Y-111538072D01*
X116740000Y-111538072D01*
X116864482Y-111525812D01*
X116984180Y-111489502D01*
X117094494Y-111430537D01*
X117191185Y-111351185D01*
X117270537Y-111254494D01*
X117329502Y-111144180D01*
X117365812Y-111024482D01*
X117378072Y-110900000D01*
X117378072Y-109900000D01*
X117365812Y-109775518D01*
X117329502Y-109655820D01*
X117270537Y-109545506D01*
X117191185Y-109448815D01*
X117094494Y-109369463D01*
X116984180Y-109310498D01*
X116864482Y-109274188D01*
X116838812Y-109271660D01*
X116803799Y-109228997D01*
X116780001Y-109199999D01*
X116751003Y-109176201D01*
X116328589Y-108753788D01*
X116391665Y-108760000D01*
X116391674Y-108760000D01*
X116428997Y-108763676D01*
X116466320Y-108760000D01*
X118605199Y-108760000D01*
X119348724Y-109503525D01*
X119326480Y-109518388D01*
X119168388Y-109676480D01*
X119044176Y-109862376D01*
X118958617Y-110068933D01*
X118915000Y-110288212D01*
X118915000Y-110511788D01*
X118958617Y-110731067D01*
X119044176Y-110937624D01*
X119168388Y-111123520D01*
X119326480Y-111281612D01*
X119512376Y-111405824D01*
X119718933Y-111491383D01*
X119938212Y-111535000D01*
X120161788Y-111535000D01*
X120381067Y-111491383D01*
X120492774Y-111445112D01*
X120575820Y-111489502D01*
X120695518Y-111525812D01*
X120820000Y-111538072D01*
X121820000Y-111538072D01*
X121944482Y-111525812D01*
X122064180Y-111489502D01*
X122174494Y-111430537D01*
X122271185Y-111351185D01*
X122350537Y-111254494D01*
X122409502Y-111144180D01*
X122445812Y-111024482D01*
X122458072Y-110900000D01*
X122458072Y-109900000D01*
X122445812Y-109775518D01*
X122409502Y-109655820D01*
X122350537Y-109545506D01*
X122271185Y-109448815D01*
X122174494Y-109369463D01*
X122064180Y-109310498D01*
X121944482Y-109274188D01*
X121820000Y-109261928D01*
X121256730Y-109261928D01*
X119483804Y-107489003D01*
X119460001Y-107459999D01*
X119344276Y-107365026D01*
X119212247Y-107294454D01*
X119068986Y-107250997D01*
X118957333Y-107240000D01*
X118957322Y-107240000D01*
X118920000Y-107236324D01*
X118882678Y-107240000D01*
X116743800Y-107240000D01*
X115916734Y-106412935D01*
X116128212Y-106455000D01*
X116351788Y-106455000D01*
X116571067Y-106411383D01*
X116777624Y-106325824D01*
X116875000Y-106260759D01*
X116972376Y-106325824D01*
X117178933Y-106411383D01*
X117398212Y-106455000D01*
X117621788Y-106455000D01*
X117841067Y-106411383D01*
X118047624Y-106325824D01*
X118145000Y-106260759D01*
X118242376Y-106325824D01*
X118448933Y-106411383D01*
X118668212Y-106455000D01*
X118891788Y-106455000D01*
X119111067Y-106411383D01*
X119317624Y-106325824D01*
X119415000Y-106260759D01*
X119512376Y-106325824D01*
X119718933Y-106411383D01*
X119938212Y-106455000D01*
X120161788Y-106455000D01*
X120381067Y-106411383D01*
X120492774Y-106365112D01*
X120575820Y-106409502D01*
X120695518Y-106445812D01*
X120820000Y-106458072D01*
X121820000Y-106458072D01*
X121944482Y-106445812D01*
X122064180Y-106409502D01*
X122174494Y-106350537D01*
X122271185Y-106271185D01*
X122350537Y-106174494D01*
X122409502Y-106064180D01*
X122445812Y-105944482D01*
X122458072Y-105820000D01*
X122458072Y-104820000D01*
X122445812Y-104695518D01*
X122409502Y-104575820D01*
X122350537Y-104465506D01*
X122271185Y-104368815D01*
X122174494Y-104289463D01*
X122064180Y-104230498D01*
X121944482Y-104194188D01*
X121936407Y-104193393D01*
X123006005Y-103123795D01*
X123035002Y-103099998D01*
X123129975Y-102984273D01*
X123200547Y-102852244D01*
X123244004Y-102708983D01*
X123255001Y-102597330D01*
X123255001Y-102597329D01*
X123258678Y-102559997D01*
X123255001Y-102522664D01*
X123255001Y-98912323D01*
X123258677Y-98875000D01*
X123255001Y-98837677D01*
X123255001Y-98837668D01*
X123244004Y-98726015D01*
X123200547Y-98582754D01*
X123129975Y-98450725D01*
X123035002Y-98335000D01*
X123006004Y-98311202D01*
X122761210Y-98066408D01*
X122805000Y-97846260D01*
X122805000Y-97553740D01*
X122747932Y-97266842D01*
X122635990Y-96996589D01*
X122473475Y-96753368D01*
X122266632Y-96546525D01*
X122023411Y-96384010D01*
X121753158Y-96272068D01*
X121466260Y-96215000D01*
X121173740Y-96215000D01*
X120886842Y-96272068D01*
X120616589Y-96384010D01*
X120373368Y-96546525D01*
X120166525Y-96753368D01*
X120050000Y-96927760D01*
X119933475Y-96753368D01*
X119726632Y-96546525D01*
X119483411Y-96384010D01*
X119213158Y-96272068D01*
X118926260Y-96215000D01*
X118633740Y-96215000D01*
X118346842Y-96272068D01*
X118076589Y-96384010D01*
X117833368Y-96546525D01*
X117626525Y-96753368D01*
X117510000Y-96927760D01*
X117393475Y-96753368D01*
X117186632Y-96546525D01*
X116943411Y-96384010D01*
X116673158Y-96272068D01*
X116386260Y-96215000D01*
X116093740Y-96215000D01*
X115806842Y-96272068D01*
X115536589Y-96384010D01*
X115293368Y-96546525D01*
X115086525Y-96753368D01*
X114970000Y-96927760D01*
X114853475Y-96753368D01*
X114646632Y-96546525D01*
X114403411Y-96384010D01*
X114133158Y-96272068D01*
X113846260Y-96215000D01*
X113553740Y-96215000D01*
X113266842Y-96272068D01*
X112996589Y-96384010D01*
X112753368Y-96546525D01*
X112546525Y-96753368D01*
X112384010Y-96996589D01*
X112272068Y-97266842D01*
X112215000Y-97553740D01*
X112215000Y-97846260D01*
X112272068Y-98133158D01*
X112384010Y-98403411D01*
X112546525Y-98646632D01*
X112678380Y-98778487D01*
X112605820Y-98800498D01*
X112495506Y-98859463D01*
X112398815Y-98938815D01*
X112319463Y-99035506D01*
X112260498Y-99145820D01*
X112224188Y-99265518D01*
X112211928Y-99390000D01*
X111127000Y-99390000D01*
X111127000Y-94185000D01*
X124315001Y-94185000D01*
X124315000Y-113315000D01*
%TA.AperFunction,NonConductor*%
D22*
G36*
X124315000Y-113315000D02*
G01*
X122033647Y-113315000D01*
X122000000Y-113311686D01*
X121966353Y-113315000D01*
X121865717Y-113324912D01*
X121736594Y-113364081D01*
X121719908Y-113373000D01*
X111127000Y-113373000D01*
X111127000Y-99390000D01*
X112211928Y-99390000D01*
X112211928Y-101090000D01*
X112224188Y-101214482D01*
X112260498Y-101334180D01*
X112319463Y-101444494D01*
X112398815Y-101541185D01*
X112495506Y-101620537D01*
X112605820Y-101679502D01*
X112725518Y-101715812D01*
X112850000Y-101728072D01*
X114305000Y-101728072D01*
X114305000Y-102006059D01*
X114301898Y-102004774D01*
X114101939Y-101965000D01*
X113898061Y-101965000D01*
X113698102Y-102004774D01*
X113509744Y-102082795D01*
X113340226Y-102196063D01*
X113196063Y-102340226D01*
X113082795Y-102509744D01*
X113004774Y-102698102D01*
X112965000Y-102898061D01*
X112965000Y-102960198D01*
X112488998Y-103436201D01*
X112460000Y-103459999D01*
X112436202Y-103488997D01*
X112436201Y-103488998D01*
X112365026Y-103575724D01*
X112294454Y-103707754D01*
X112250998Y-103851015D01*
X112236324Y-104000000D01*
X112240001Y-104037332D01*
X112240000Y-106462677D01*
X112236324Y-106500000D01*
X112240000Y-106537322D01*
X112240000Y-106537332D01*
X112250997Y-106648985D01*
X112294454Y-106792246D01*
X112365026Y-106924276D01*
X112404871Y-106972826D01*
X112459999Y-107040001D01*
X112489003Y-107063804D01*
X114718073Y-109292875D01*
X114638933Y-109308617D01*
X114432376Y-109394176D01*
X114246480Y-109518388D01*
X114088388Y-109676480D01*
X113964176Y-109862376D01*
X113878617Y-110068933D01*
X113835000Y-110288212D01*
X113835000Y-110511788D01*
X113878617Y-110731067D01*
X113964176Y-110937624D01*
X114088388Y-111123520D01*
X114246480Y-111281612D01*
X114432376Y-111405824D01*
X114638933Y-111491383D01*
X114858212Y-111535000D01*
X115081788Y-111535000D01*
X115301067Y-111491383D01*
X115412774Y-111445112D01*
X115495820Y-111489502D01*
X115615518Y-111525812D01*
X115740000Y-111538072D01*
X116740000Y-111538072D01*
X116864482Y-111525812D01*
X116984180Y-111489502D01*
X117094494Y-111430537D01*
X117191185Y-111351185D01*
X117270537Y-111254494D01*
X117329502Y-111144180D01*
X117365812Y-111024482D01*
X117378072Y-110900000D01*
X117378072Y-109900000D01*
X117365812Y-109775518D01*
X117329502Y-109655820D01*
X117270537Y-109545506D01*
X117191185Y-109448815D01*
X117094494Y-109369463D01*
X116984180Y-109310498D01*
X116864482Y-109274188D01*
X116838812Y-109271660D01*
X116803799Y-109228997D01*
X116780001Y-109199999D01*
X116751003Y-109176201D01*
X116328589Y-108753788D01*
X116391665Y-108760000D01*
X116391674Y-108760000D01*
X116428997Y-108763676D01*
X116466320Y-108760000D01*
X118605199Y-108760000D01*
X119348724Y-109503525D01*
X119326480Y-109518388D01*
X119168388Y-109676480D01*
X119044176Y-109862376D01*
X118958617Y-110068933D01*
X118915000Y-110288212D01*
X118915000Y-110511788D01*
X118958617Y-110731067D01*
X119044176Y-110937624D01*
X119168388Y-111123520D01*
X119326480Y-111281612D01*
X119512376Y-111405824D01*
X119718933Y-111491383D01*
X119938212Y-111535000D01*
X120161788Y-111535000D01*
X120381067Y-111491383D01*
X120492774Y-111445112D01*
X120575820Y-111489502D01*
X120695518Y-111525812D01*
X120820000Y-111538072D01*
X121820000Y-111538072D01*
X121944482Y-111525812D01*
X122064180Y-111489502D01*
X122174494Y-111430537D01*
X122271185Y-111351185D01*
X122350537Y-111254494D01*
X122409502Y-111144180D01*
X122445812Y-111024482D01*
X122458072Y-110900000D01*
X122458072Y-109900000D01*
X122445812Y-109775518D01*
X122409502Y-109655820D01*
X122350537Y-109545506D01*
X122271185Y-109448815D01*
X122174494Y-109369463D01*
X122064180Y-109310498D01*
X121944482Y-109274188D01*
X121820000Y-109261928D01*
X121256730Y-109261928D01*
X119483804Y-107489003D01*
X119460001Y-107459999D01*
X119344276Y-107365026D01*
X119212247Y-107294454D01*
X119068986Y-107250997D01*
X118957333Y-107240000D01*
X118957322Y-107240000D01*
X118920000Y-107236324D01*
X118882678Y-107240000D01*
X116743800Y-107240000D01*
X115916734Y-106412935D01*
X116128212Y-106455000D01*
X116351788Y-106455000D01*
X116571067Y-106411383D01*
X116777624Y-106325824D01*
X116875000Y-106260759D01*
X116972376Y-106325824D01*
X117178933Y-106411383D01*
X117398212Y-106455000D01*
X117621788Y-106455000D01*
X117841067Y-106411383D01*
X118047624Y-106325824D01*
X118145000Y-106260759D01*
X118242376Y-106325824D01*
X118448933Y-106411383D01*
X118668212Y-106455000D01*
X118891788Y-106455000D01*
X119111067Y-106411383D01*
X119317624Y-106325824D01*
X119415000Y-106260759D01*
X119512376Y-106325824D01*
X119718933Y-106411383D01*
X119938212Y-106455000D01*
X120161788Y-106455000D01*
X120381067Y-106411383D01*
X120492774Y-106365112D01*
X120575820Y-106409502D01*
X120695518Y-106445812D01*
X120820000Y-106458072D01*
X121820000Y-106458072D01*
X121944482Y-106445812D01*
X122064180Y-106409502D01*
X122174494Y-106350537D01*
X122271185Y-106271185D01*
X122350537Y-106174494D01*
X122409502Y-106064180D01*
X122445812Y-105944482D01*
X122458072Y-105820000D01*
X122458072Y-104820000D01*
X122445812Y-104695518D01*
X122409502Y-104575820D01*
X122350537Y-104465506D01*
X122271185Y-104368815D01*
X122174494Y-104289463D01*
X122064180Y-104230498D01*
X121944482Y-104194188D01*
X121936407Y-104193393D01*
X123006005Y-103123795D01*
X123035002Y-103099998D01*
X123129975Y-102984273D01*
X123200547Y-102852244D01*
X123244004Y-102708983D01*
X123255001Y-102597330D01*
X123255001Y-102597329D01*
X123258678Y-102559997D01*
X123255001Y-102522664D01*
X123255001Y-98912323D01*
X123258677Y-98875000D01*
X123255001Y-98837677D01*
X123255001Y-98837668D01*
X123244004Y-98726015D01*
X123200547Y-98582754D01*
X123129975Y-98450725D01*
X123035002Y-98335000D01*
X123006004Y-98311202D01*
X122761210Y-98066408D01*
X122805000Y-97846260D01*
X122805000Y-97553740D01*
X122747932Y-97266842D01*
X122635990Y-96996589D01*
X122473475Y-96753368D01*
X122266632Y-96546525D01*
X122023411Y-96384010D01*
X121753158Y-96272068D01*
X121466260Y-96215000D01*
X121173740Y-96215000D01*
X120886842Y-96272068D01*
X120616589Y-96384010D01*
X120373368Y-96546525D01*
X120166525Y-96753368D01*
X120050000Y-96927760D01*
X119933475Y-96753368D01*
X119726632Y-96546525D01*
X119483411Y-96384010D01*
X119213158Y-96272068D01*
X118926260Y-96215000D01*
X118633740Y-96215000D01*
X118346842Y-96272068D01*
X118076589Y-96384010D01*
X117833368Y-96546525D01*
X117626525Y-96753368D01*
X117510000Y-96927760D01*
X117393475Y-96753368D01*
X117186632Y-96546525D01*
X116943411Y-96384010D01*
X116673158Y-96272068D01*
X116386260Y-96215000D01*
X116093740Y-96215000D01*
X115806842Y-96272068D01*
X115536589Y-96384010D01*
X115293368Y-96546525D01*
X115086525Y-96753368D01*
X114970000Y-96927760D01*
X114853475Y-96753368D01*
X114646632Y-96546525D01*
X114403411Y-96384010D01*
X114133158Y-96272068D01*
X113846260Y-96215000D01*
X113553740Y-96215000D01*
X113266842Y-96272068D01*
X112996589Y-96384010D01*
X112753368Y-96546525D01*
X112546525Y-96753368D01*
X112384010Y-96996589D01*
X112272068Y-97266842D01*
X112215000Y-97553740D01*
X112215000Y-97846260D01*
X112272068Y-98133158D01*
X112384010Y-98403411D01*
X112546525Y-98646632D01*
X112678380Y-98778487D01*
X112605820Y-98800498D01*
X112495506Y-98859463D01*
X112398815Y-98938815D01*
X112319463Y-99035506D01*
X112260498Y-99145820D01*
X112224188Y-99265518D01*
X112211928Y-99390000D01*
X111127000Y-99390000D01*
X111127000Y-94185000D01*
X124315001Y-94185000D01*
X124315000Y-113315000D01*
G37*
%TD.AperFunction*%
D21*
X120166525Y-101186632D02*
X120373368Y-101393475D01*
X120560001Y-101518179D01*
X120560001Y-102465196D01*
X118840199Y-104185000D01*
X118668212Y-104185000D01*
X118448933Y-104228617D01*
X118242376Y-104314176D01*
X118145000Y-104379241D01*
X118047624Y-104314176D01*
X117841067Y-104228617D01*
X117621788Y-104185000D01*
X117398212Y-104185000D01*
X117178933Y-104228617D01*
X116972376Y-104314176D01*
X116875000Y-104379241D01*
X116777624Y-104314176D01*
X116571067Y-104228617D01*
X116351788Y-104185000D01*
X116128212Y-104185000D01*
X115908933Y-104228617D01*
X115774121Y-104284458D01*
X115814002Y-104152985D01*
X115824999Y-104041332D01*
X115824999Y-104041323D01*
X115828675Y-104004000D01*
X115824999Y-103966677D01*
X115824999Y-101671544D01*
X116093740Y-101725000D01*
X116386260Y-101725000D01*
X116673158Y-101667932D01*
X116943411Y-101555990D01*
X117186632Y-101393475D01*
X117393475Y-101186632D01*
X117510000Y-101012240D01*
X117626525Y-101186632D01*
X117833368Y-101393475D01*
X118076589Y-101555990D01*
X118346842Y-101667932D01*
X118633740Y-101725000D01*
X118926260Y-101725000D01*
X119213158Y-101667932D01*
X119483411Y-101555990D01*
X119726632Y-101393475D01*
X119933475Y-101186632D01*
X120050000Y-101012240D01*
X120166525Y-101186632D01*
%TA.AperFunction,NonConductor*%
D22*
G36*
X120166525Y-101186632D02*
G01*
X120373368Y-101393475D01*
X120560001Y-101518179D01*
X120560001Y-102465196D01*
X118840199Y-104185000D01*
X118668212Y-104185000D01*
X118448933Y-104228617D01*
X118242376Y-104314176D01*
X118145000Y-104379241D01*
X118047624Y-104314176D01*
X117841067Y-104228617D01*
X117621788Y-104185000D01*
X117398212Y-104185000D01*
X117178933Y-104228617D01*
X116972376Y-104314176D01*
X116875000Y-104379241D01*
X116777624Y-104314176D01*
X116571067Y-104228617D01*
X116351788Y-104185000D01*
X116128212Y-104185000D01*
X115908933Y-104228617D01*
X115774121Y-104284458D01*
X115814002Y-104152985D01*
X115824999Y-104041332D01*
X115824999Y-104041323D01*
X115828675Y-104004000D01*
X115824999Y-103966677D01*
X115824999Y-101671544D01*
X116093740Y-101725000D01*
X116386260Y-101725000D01*
X116673158Y-101667932D01*
X116943411Y-101555990D01*
X117186632Y-101393475D01*
X117393475Y-101186632D01*
X117510000Y-101012240D01*
X117626525Y-101186632D01*
X117833368Y-101393475D01*
X118076589Y-101555990D01*
X118346842Y-101667932D01*
X118633740Y-101725000D01*
X118926260Y-101725000D01*
X119213158Y-101667932D01*
X119483411Y-101555990D01*
X119726632Y-101393475D01*
X119933475Y-101186632D01*
X120050000Y-101012240D01*
X120166525Y-101186632D01*
G37*
%TD.AperFunction*%
D21*
X117626525Y-98646632D02*
X117833368Y-98853475D01*
X118007760Y-98970000D01*
X117833368Y-99086525D01*
X117626525Y-99293368D01*
X117510000Y-99467760D01*
X117393475Y-99293368D01*
X117186632Y-99086525D01*
X117012240Y-98970000D01*
X117186632Y-98853475D01*
X117393475Y-98646632D01*
X117510000Y-98472240D01*
X117626525Y-98646632D01*
%TA.AperFunction,NonConductor*%
D22*
G36*
X117626525Y-98646632D02*
G01*
X117833368Y-98853475D01*
X118007760Y-98970000D01*
X117833368Y-99086525D01*
X117626525Y-99293368D01*
X117510000Y-99467760D01*
X117393475Y-99293368D01*
X117186632Y-99086525D01*
X117012240Y-98970000D01*
X117186632Y-98853475D01*
X117393475Y-98646632D01*
X117510000Y-98472240D01*
X117626525Y-98646632D01*
G37*
%TD.AperFunction*%
D21*
X120166525Y-98646632D02*
X120373368Y-98853475D01*
X120547760Y-98970000D01*
X120373368Y-99086525D01*
X120166525Y-99293368D01*
X120050000Y-99467760D01*
X119933475Y-99293368D01*
X119726632Y-99086525D01*
X119552240Y-98970000D01*
X119726632Y-98853475D01*
X119933475Y-98646632D01*
X120050000Y-98472240D01*
X120166525Y-98646632D01*
%TA.AperFunction,NonConductor*%
D22*
G36*
X120166525Y-98646632D02*
G01*
X120373368Y-98853475D01*
X120547760Y-98970000D01*
X120373368Y-99086525D01*
X120166525Y-99293368D01*
X120050000Y-99467760D01*
X119933475Y-99293368D01*
X119726632Y-99086525D01*
X119552240Y-98970000D01*
X119726632Y-98853475D01*
X119933475Y-98646632D01*
X120050000Y-98472240D01*
X120166525Y-98646632D01*
G37*
%TD.AperFunction*%
M02*
