%TF.GenerationSoftware,KiCad,Pcbnew,5.1.8-db9833491~87~ubuntu20.04.1*%
%TF.CreationDate,2020-11-15T18:33:08-08:00*%
%TF.ProjectId,inflow-controller-v0,696e666c-6f77-42d6-936f-6e74726f6c6c,rev?*%
%TF.SameCoordinates,Original*%
%TF.FileFunction,Legend,Top*%
%TF.FilePolarity,Positive*%
%FSLAX46Y46*%
G04 Gerber Fmt 4.6, Leading zero omitted, Abs format (unit mm)*
G04 Created by KiCad (PCBNEW 5.1.8-db9833491~87~ubuntu20.04.1) date 2020-11-15 18:33:08*
%MOMM*%
%LPD*%
G01*
G04 APERTURE LIST*
%ADD10C,0.200000*%
%ADD11C,0.127000*%
%ADD12C,0.120000*%
%ADD13C,0.150000*%
G04 APERTURE END LIST*
D10*
%TO.C,X301*%
X122000000Y-128550000D02*
G75*
G03*
X122000000Y-128550000I-100000J0D01*
G01*
D11*
X105100000Y-136100000D02*
X105100000Y-132950000D01*
X114900000Y-136100000D02*
X105100000Y-136100000D01*
X114900000Y-132950000D02*
X114900000Y-136100000D01*
X115170000Y-132950000D02*
X114900000Y-132950000D01*
X117900000Y-129850000D02*
X117900000Y-131070000D01*
X121100000Y-129850000D02*
X117900000Y-129850000D01*
X117900000Y-120150000D02*
X121100000Y-120150000D01*
X117900000Y-118920000D02*
X117900000Y-120150000D01*
X114000000Y-117050000D02*
X115120000Y-117050000D01*
X114000000Y-115500000D02*
X114000000Y-117050000D01*
X105900000Y-115500000D02*
X114000000Y-115500000D01*
X105900000Y-117050000D02*
X105900000Y-115500000D01*
X102000000Y-119550000D02*
X102000000Y-118920000D01*
X95700000Y-119550000D02*
X102000000Y-119550000D01*
X95700000Y-130450000D02*
X95700000Y-119550000D01*
X102000000Y-130450000D02*
X95700000Y-130450000D01*
X102000000Y-131070000D02*
X102000000Y-130450000D01*
D12*
%TO.C,SW201*%
X99350000Y-105300000D02*
X99350000Y-105050000D01*
X99350000Y-105050000D02*
X105650000Y-105050000D01*
X105650000Y-105050000D02*
X105650000Y-105300000D01*
X99350000Y-109800000D02*
X99350000Y-107200000D01*
X105650000Y-111700000D02*
X105650000Y-111950000D01*
X105650000Y-111950000D02*
X99350000Y-111950000D01*
X99350000Y-111950000D02*
X99350000Y-111700000D01*
X105650000Y-107200000D02*
X105650000Y-109800000D01*
%TO.C,SW101*%
X99350000Y-93300000D02*
X99350000Y-93050000D01*
X99350000Y-93050000D02*
X105650000Y-93050000D01*
X105650000Y-93050000D02*
X105650000Y-93300000D01*
X99350000Y-97800000D02*
X99350000Y-95200000D01*
X105650000Y-99700000D02*
X105650000Y-99950000D01*
X105650000Y-99950000D02*
X99350000Y-99950000D01*
X99350000Y-99950000D02*
X99350000Y-99700000D01*
X105650000Y-95200000D02*
X105650000Y-97800000D01*
%TO.C,J403*%
X114275000Y-104210000D02*
X114275000Y-105012470D01*
X114275000Y-105627530D02*
X114275000Y-106430000D01*
X120560000Y-104210000D02*
X114275000Y-104210000D01*
X120560000Y-106430000D02*
X114275000Y-106430000D01*
X120560000Y-104210000D02*
X120560000Y-104756529D01*
X120560000Y-105883471D02*
X120560000Y-106430000D01*
X121320000Y-104210000D02*
X122080000Y-104210000D01*
X122080000Y-104210000D02*
X122080000Y-105320000D01*
%TO.C,J402*%
X114275000Y-109290000D02*
X114275000Y-110092470D01*
X114275000Y-110707530D02*
X114275000Y-111510000D01*
X115480000Y-109290000D02*
X114275000Y-109290000D01*
X115480000Y-111510000D02*
X114275000Y-111510000D01*
X115480000Y-109290000D02*
X115480000Y-109836529D01*
X115480000Y-110963471D02*
X115480000Y-111510000D01*
X116240000Y-109290000D02*
X117000000Y-109290000D01*
X117000000Y-109290000D02*
X117000000Y-110400000D01*
%TO.C,J401*%
X119355000Y-109290000D02*
X119355000Y-110092470D01*
X119355000Y-110707530D02*
X119355000Y-111510000D01*
X120560000Y-109290000D02*
X119355000Y-109290000D01*
X120560000Y-111510000D02*
X119355000Y-111510000D01*
X120560000Y-109290000D02*
X120560000Y-109836529D01*
X120560000Y-110963471D02*
X120560000Y-111510000D01*
X121320000Y-109290000D02*
X122080000Y-109290000D01*
X122080000Y-109290000D02*
X122080000Y-110400000D01*
%TO.C,CN401*%
X112370000Y-96260000D02*
X122650000Y-96260000D01*
X122650000Y-96260000D02*
X122650000Y-93600000D01*
X122650000Y-93600000D02*
X112370000Y-93600000D01*
X112370000Y-93600000D02*
X112370000Y-96260000D01*
X113320000Y-93600000D02*
X113320000Y-87600000D01*
X113320000Y-87600000D02*
X114080000Y-87600000D01*
X114080000Y-87600000D02*
X114080000Y-93600000D01*
X113380000Y-93600000D02*
X113380000Y-87600000D01*
X113500000Y-93600000D02*
X113500000Y-87600000D01*
X113620000Y-93600000D02*
X113620000Y-87600000D01*
X113740000Y-93600000D02*
X113740000Y-87600000D01*
X113860000Y-93600000D02*
X113860000Y-87600000D01*
X113980000Y-93600000D02*
X113980000Y-87600000D01*
X113320000Y-96657071D02*
X113320000Y-96260000D01*
X114080000Y-96657071D02*
X114080000Y-96260000D01*
X113320000Y-99130000D02*
X113320000Y-98742929D01*
X114080000Y-99130000D02*
X114080000Y-98742929D01*
X114970000Y-96260000D02*
X114970000Y-93600000D01*
X115860000Y-93600000D02*
X115860000Y-87600000D01*
X115860000Y-87600000D02*
X116620000Y-87600000D01*
X116620000Y-87600000D02*
X116620000Y-93600000D01*
X115860000Y-96657071D02*
X115860000Y-96260000D01*
X116620000Y-96657071D02*
X116620000Y-96260000D01*
X115860000Y-99197071D02*
X115860000Y-98742929D01*
X116620000Y-99197071D02*
X116620000Y-98742929D01*
X117510000Y-96260000D02*
X117510000Y-93600000D01*
X118400000Y-93600000D02*
X118400000Y-87600000D01*
X118400000Y-87600000D02*
X119160000Y-87600000D01*
X119160000Y-87600000D02*
X119160000Y-93600000D01*
X118400000Y-96657071D02*
X118400000Y-96260000D01*
X119160000Y-96657071D02*
X119160000Y-96260000D01*
X118400000Y-99197071D02*
X118400000Y-98742929D01*
X119160000Y-99197071D02*
X119160000Y-98742929D01*
X120050000Y-96260000D02*
X120050000Y-93600000D01*
X120940000Y-93600000D02*
X120940000Y-87600000D01*
X120940000Y-87600000D02*
X121700000Y-87600000D01*
X121700000Y-87600000D02*
X121700000Y-93600000D01*
X120940000Y-96657071D02*
X120940000Y-96260000D01*
X121700000Y-96657071D02*
X121700000Y-96260000D01*
X120940000Y-99197071D02*
X120940000Y-98742929D01*
X121700000Y-99197071D02*
X121700000Y-98742929D01*
X113700000Y-101510000D02*
X112430000Y-101510000D01*
X112430000Y-101510000D02*
X112430000Y-100240000D01*
%TO.C,X301*%
D13*
X116238095Y-133952380D02*
X116904761Y-134952380D01*
X116904761Y-133952380D02*
X116238095Y-134952380D01*
X117190476Y-133952380D02*
X117809523Y-133952380D01*
X117476190Y-134333333D01*
X117619047Y-134333333D01*
X117714285Y-134380952D01*
X117761904Y-134428571D01*
X117809523Y-134523809D01*
X117809523Y-134761904D01*
X117761904Y-134857142D01*
X117714285Y-134904761D01*
X117619047Y-134952380D01*
X117333333Y-134952380D01*
X117238095Y-134904761D01*
X117190476Y-134857142D01*
X118428571Y-133952380D02*
X118523809Y-133952380D01*
X118619047Y-134000000D01*
X118666666Y-134047619D01*
X118714285Y-134142857D01*
X118761904Y-134333333D01*
X118761904Y-134571428D01*
X118714285Y-134761904D01*
X118666666Y-134857142D01*
X118619047Y-134904761D01*
X118523809Y-134952380D01*
X118428571Y-134952380D01*
X118333333Y-134904761D01*
X118285714Y-134857142D01*
X118238095Y-134761904D01*
X118190476Y-134571428D01*
X118190476Y-134333333D01*
X118238095Y-134142857D01*
X118285714Y-134047619D01*
X118333333Y-134000000D01*
X118428571Y-133952380D01*
X119714285Y-134952380D02*
X119142857Y-134952380D01*
X119428571Y-134952380D02*
X119428571Y-133952380D01*
X119333333Y-134095238D01*
X119238095Y-134190476D01*
X119142857Y-134238095D01*
%TO.C,SW201*%
X100214285Y-104404761D02*
X100357142Y-104452380D01*
X100595238Y-104452380D01*
X100690476Y-104404761D01*
X100738095Y-104357142D01*
X100785714Y-104261904D01*
X100785714Y-104166666D01*
X100738095Y-104071428D01*
X100690476Y-104023809D01*
X100595238Y-103976190D01*
X100404761Y-103928571D01*
X100309523Y-103880952D01*
X100261904Y-103833333D01*
X100214285Y-103738095D01*
X100214285Y-103642857D01*
X100261904Y-103547619D01*
X100309523Y-103500000D01*
X100404761Y-103452380D01*
X100642857Y-103452380D01*
X100785714Y-103500000D01*
X101119047Y-103452380D02*
X101357142Y-104452380D01*
X101547619Y-103738095D01*
X101738095Y-104452380D01*
X101976190Y-103452380D01*
X102309523Y-103547619D02*
X102357142Y-103500000D01*
X102452380Y-103452380D01*
X102690476Y-103452380D01*
X102785714Y-103500000D01*
X102833333Y-103547619D01*
X102880952Y-103642857D01*
X102880952Y-103738095D01*
X102833333Y-103880952D01*
X102261904Y-104452380D01*
X102880952Y-104452380D01*
X103500000Y-103452380D02*
X103595238Y-103452380D01*
X103690476Y-103500000D01*
X103738095Y-103547619D01*
X103785714Y-103642857D01*
X103833333Y-103833333D01*
X103833333Y-104071428D01*
X103785714Y-104261904D01*
X103738095Y-104357142D01*
X103690476Y-104404761D01*
X103595238Y-104452380D01*
X103500000Y-104452380D01*
X103404761Y-104404761D01*
X103357142Y-104357142D01*
X103309523Y-104261904D01*
X103261904Y-104071428D01*
X103261904Y-103833333D01*
X103309523Y-103642857D01*
X103357142Y-103547619D01*
X103404761Y-103500000D01*
X103500000Y-103452380D01*
X104785714Y-104452380D02*
X104214285Y-104452380D01*
X104500000Y-104452380D02*
X104500000Y-103452380D01*
X104404761Y-103595238D01*
X104309523Y-103690476D01*
X104214285Y-103738095D01*
%TO.C,SW101*%
X100214285Y-92404761D02*
X100357142Y-92452380D01*
X100595238Y-92452380D01*
X100690476Y-92404761D01*
X100738095Y-92357142D01*
X100785714Y-92261904D01*
X100785714Y-92166666D01*
X100738095Y-92071428D01*
X100690476Y-92023809D01*
X100595238Y-91976190D01*
X100404761Y-91928571D01*
X100309523Y-91880952D01*
X100261904Y-91833333D01*
X100214285Y-91738095D01*
X100214285Y-91642857D01*
X100261904Y-91547619D01*
X100309523Y-91500000D01*
X100404761Y-91452380D01*
X100642857Y-91452380D01*
X100785714Y-91500000D01*
X101119047Y-91452380D02*
X101357142Y-92452380D01*
X101547619Y-91738095D01*
X101738095Y-92452380D01*
X101976190Y-91452380D01*
X102880952Y-92452380D02*
X102309523Y-92452380D01*
X102595238Y-92452380D02*
X102595238Y-91452380D01*
X102500000Y-91595238D01*
X102404761Y-91690476D01*
X102309523Y-91738095D01*
X103500000Y-91452380D02*
X103595238Y-91452380D01*
X103690476Y-91500000D01*
X103738095Y-91547619D01*
X103785714Y-91642857D01*
X103833333Y-91833333D01*
X103833333Y-92071428D01*
X103785714Y-92261904D01*
X103738095Y-92357142D01*
X103690476Y-92404761D01*
X103595238Y-92452380D01*
X103500000Y-92452380D01*
X103404761Y-92404761D01*
X103357142Y-92357142D01*
X103309523Y-92261904D01*
X103261904Y-92071428D01*
X103261904Y-91833333D01*
X103309523Y-91642857D01*
X103357142Y-91547619D01*
X103404761Y-91500000D01*
X103500000Y-91452380D01*
X104785714Y-92452380D02*
X104214285Y-92452380D01*
X104500000Y-92452380D02*
X104500000Y-91452380D01*
X104404761Y-91595238D01*
X104309523Y-91690476D01*
X104214285Y-91738095D01*
%TO.C,J403*%
X122467380Y-106605714D02*
X123181666Y-106605714D01*
X123324523Y-106653333D01*
X123419761Y-106748571D01*
X123467380Y-106891428D01*
X123467380Y-106986666D01*
X122800714Y-105700952D02*
X123467380Y-105700952D01*
X122419761Y-105939047D02*
X123134047Y-106177142D01*
X123134047Y-105558095D01*
X122467380Y-104986666D02*
X122467380Y-104891428D01*
X122515000Y-104796190D01*
X122562619Y-104748571D01*
X122657857Y-104700952D01*
X122848333Y-104653333D01*
X123086428Y-104653333D01*
X123276904Y-104700952D01*
X123372142Y-104748571D01*
X123419761Y-104796190D01*
X123467380Y-104891428D01*
X123467380Y-104986666D01*
X123419761Y-105081904D01*
X123372142Y-105129523D01*
X123276904Y-105177142D01*
X123086428Y-105224761D01*
X122848333Y-105224761D01*
X122657857Y-105177142D01*
X122562619Y-105129523D01*
X122515000Y-105081904D01*
X122467380Y-104986666D01*
X122467380Y-104320000D02*
X122467380Y-103700952D01*
X122848333Y-104034285D01*
X122848333Y-103891428D01*
X122895952Y-103796190D01*
X122943571Y-103748571D01*
X123038809Y-103700952D01*
X123276904Y-103700952D01*
X123372142Y-103748571D01*
X123419761Y-103796190D01*
X123467380Y-103891428D01*
X123467380Y-104177142D01*
X123419761Y-104272380D01*
X123372142Y-104320000D01*
%TO.C,J402*%
X117387380Y-111685714D02*
X118101666Y-111685714D01*
X118244523Y-111733333D01*
X118339761Y-111828571D01*
X118387380Y-111971428D01*
X118387380Y-112066666D01*
X117720714Y-110780952D02*
X118387380Y-110780952D01*
X117339761Y-111019047D02*
X118054047Y-111257142D01*
X118054047Y-110638095D01*
X117387380Y-110066666D02*
X117387380Y-109971428D01*
X117435000Y-109876190D01*
X117482619Y-109828571D01*
X117577857Y-109780952D01*
X117768333Y-109733333D01*
X118006428Y-109733333D01*
X118196904Y-109780952D01*
X118292142Y-109828571D01*
X118339761Y-109876190D01*
X118387380Y-109971428D01*
X118387380Y-110066666D01*
X118339761Y-110161904D01*
X118292142Y-110209523D01*
X118196904Y-110257142D01*
X118006428Y-110304761D01*
X117768333Y-110304761D01*
X117577857Y-110257142D01*
X117482619Y-110209523D01*
X117435000Y-110161904D01*
X117387380Y-110066666D01*
X117482619Y-109352380D02*
X117435000Y-109304761D01*
X117387380Y-109209523D01*
X117387380Y-108971428D01*
X117435000Y-108876190D01*
X117482619Y-108828571D01*
X117577857Y-108780952D01*
X117673095Y-108780952D01*
X117815952Y-108828571D01*
X118387380Y-109400000D01*
X118387380Y-108780952D01*
%TO.C,J401*%
X122467380Y-111685714D02*
X123181666Y-111685714D01*
X123324523Y-111733333D01*
X123419761Y-111828571D01*
X123467380Y-111971428D01*
X123467380Y-112066666D01*
X122800714Y-110780952D02*
X123467380Y-110780952D01*
X122419761Y-111019047D02*
X123134047Y-111257142D01*
X123134047Y-110638095D01*
X122467380Y-110066666D02*
X122467380Y-109971428D01*
X122515000Y-109876190D01*
X122562619Y-109828571D01*
X122657857Y-109780952D01*
X122848333Y-109733333D01*
X123086428Y-109733333D01*
X123276904Y-109780952D01*
X123372142Y-109828571D01*
X123419761Y-109876190D01*
X123467380Y-109971428D01*
X123467380Y-110066666D01*
X123419761Y-110161904D01*
X123372142Y-110209523D01*
X123276904Y-110257142D01*
X123086428Y-110304761D01*
X122848333Y-110304761D01*
X122657857Y-110257142D01*
X122562619Y-110209523D01*
X122515000Y-110161904D01*
X122467380Y-110066666D01*
X123467380Y-108780952D02*
X123467380Y-109352380D01*
X123467380Y-109066666D02*
X122467380Y-109066666D01*
X122610238Y-109161904D01*
X122705476Y-109257142D01*
X122753095Y-109352380D01*
%TO.C,CN401*%
X111787142Y-96227857D02*
X111834761Y-96275476D01*
X111882380Y-96418333D01*
X111882380Y-96513571D01*
X111834761Y-96656428D01*
X111739523Y-96751666D01*
X111644285Y-96799285D01*
X111453809Y-96846904D01*
X111310952Y-96846904D01*
X111120476Y-96799285D01*
X111025238Y-96751666D01*
X110930000Y-96656428D01*
X110882380Y-96513571D01*
X110882380Y-96418333D01*
X110930000Y-96275476D01*
X110977619Y-96227857D01*
X111882380Y-95799285D02*
X110882380Y-95799285D01*
X111882380Y-95227857D01*
X110882380Y-95227857D01*
X111215714Y-94323095D02*
X111882380Y-94323095D01*
X110834761Y-94561190D02*
X111549047Y-94799285D01*
X111549047Y-94180238D01*
X110882380Y-93608809D02*
X110882380Y-93513571D01*
X110930000Y-93418333D01*
X110977619Y-93370714D01*
X111072857Y-93323095D01*
X111263333Y-93275476D01*
X111501428Y-93275476D01*
X111691904Y-93323095D01*
X111787142Y-93370714D01*
X111834761Y-93418333D01*
X111882380Y-93513571D01*
X111882380Y-93608809D01*
X111834761Y-93704047D01*
X111787142Y-93751666D01*
X111691904Y-93799285D01*
X111501428Y-93846904D01*
X111263333Y-93846904D01*
X111072857Y-93799285D01*
X110977619Y-93751666D01*
X110930000Y-93704047D01*
X110882380Y-93608809D01*
X111882380Y-92323095D02*
X111882380Y-92894523D01*
X111882380Y-92608809D02*
X110882380Y-92608809D01*
X111025238Y-92704047D01*
X111120476Y-92799285D01*
X111168095Y-92894523D01*
%TD*%
M02*
