%TF.GenerationSoftware,KiCad,Pcbnew,5.1.8-db9833491~87~ubuntu20.04.1*%
%TF.CreationDate,2020-11-15T18:33:08-08:00*%
%TF.ProjectId,inflow-controller-v0,696e666c-6f77-42d6-936f-6e74726f6c6c,rev?*%
%TF.SameCoordinates,Original*%
%TF.FileFunction,Soldermask,Top*%
%TF.FilePolarity,Negative*%
%FSLAX46Y46*%
G04 Gerber Fmt 4.6, Leading zero omitted, Abs format (unit mm)*
G04 Created by KiCad (PCBNEW 5.1.8-db9833491~87~ubuntu20.04.1) date 2020-11-15 18:33:08*
%MOMM*%
%LPD*%
G01*
G04 APERTURE LIST*
%ADD10C,1.000000*%
%ADD11R,1.778000X1.778000*%
%ADD12C,1.778000*%
%ADD13R,2.286000X2.286000*%
%ADD14R,1.550000X1.300000*%
%ADD15O,1.000000X1.000000*%
%ADD16R,1.000000X1.000000*%
%ADD17O,1.700000X1.700000*%
%ADD18R,1.700000X1.700000*%
G04 APERTURE END LIST*
D10*
X110000000Y-114000000D02*
X110000000Y-93500000D01*
X96000000Y-102500000D02*
X109500000Y-102500000D01*
X96000000Y-114500000D02*
X122000000Y-114500000D01*
D11*
%TO.C,X301*%
X107500000Y-133500000D03*
D12*
X110000000Y-133500000D03*
X112500000Y-133500000D03*
D13*
X115000000Y-131250000D03*
X105000000Y-131250000D03*
X105000000Y-118750000D03*
X115000000Y-118750000D03*
D12*
X118500000Y-127500000D03*
X118500000Y-125000000D03*
D11*
X118500000Y-122500000D03*
X99750000Y-128250000D03*
X99750000Y-121750000D03*
D12*
X104250000Y-128250000D03*
X104250000Y-121750000D03*
%TD*%
D14*
%TO.C,SW201*%
X106475000Y-110750000D03*
X98525000Y-110750000D03*
X106475000Y-106250000D03*
X98525000Y-106250000D03*
%TD*%
%TO.C,SW101*%
X106475000Y-98750000D03*
X98525000Y-98750000D03*
X106475000Y-94250000D03*
X98525000Y-94250000D03*
%TD*%
D15*
%TO.C,J403*%
X114970000Y-105320000D03*
X116240000Y-105320000D03*
X117510000Y-105320000D03*
X118780000Y-105320000D03*
X120050000Y-105320000D03*
D16*
X121320000Y-105320000D03*
%TD*%
D15*
%TO.C,J402*%
X114970000Y-110400000D03*
D16*
X116240000Y-110400000D03*
%TD*%
D15*
%TO.C,J401*%
X120050000Y-110400000D03*
D16*
X121320000Y-110400000D03*
%TD*%
D15*
%TO.C,J303*%
X98150000Y-134500000D03*
X99420000Y-134500000D03*
X100690000Y-134500000D03*
X101960000Y-134500000D03*
X103230000Y-134500000D03*
D16*
X104500000Y-134500000D03*
%TD*%
%TO.C,J202*%
X98500000Y-109250000D03*
D15*
X98500000Y-107980000D03*
%TD*%
%TO.C,J101*%
X98500000Y-95980000D03*
D16*
X98500000Y-97250000D03*
%TD*%
D17*
%TO.C,CN401*%
X121320000Y-97700000D03*
X121320000Y-100240000D03*
X118780000Y-97700000D03*
X118780000Y-100240000D03*
X116240000Y-97700000D03*
X116240000Y-100240000D03*
X113700000Y-97700000D03*
D18*
X113700000Y-100240000D03*
%TD*%
M02*
